<svg width="20" height="20" viewBox="0 0 20 20" fill="none" xmlns="http://www.w3.org/2000/svg">
<path d="M5.83328 17.4841C4.69499 17.3967 3.61341 16.9519 2.74299 16.2132C1.87257 15.4745 1.25781 14.4796 0.986493 13.3707C0.715174 12.2617 0.801169 11.0954 1.2322 10.0383C1.66323 8.98114 2.41726 8.08721 3.38661 7.48413C3.59287 5.87587 4.37811 4.39789 5.59538 3.32676C6.81264 2.25564 8.37851 1.66479 9.99994 1.66479C11.6214 1.66479 13.1872 2.25564 14.4045 3.32676C15.6218 4.39789 16.407 5.87587 16.6133 7.48413C17.5826 8.08721 18.3367 8.98114 18.7677 10.0383C19.1987 11.0954 19.2847 12.2617 19.0134 13.3707C18.7421 14.4796 18.1273 15.4745 17.2569 16.2132C16.3865 16.9519 15.3049 17.3967 14.1666 17.4841V17.5H5.83328V17.4841ZM10.8333 9.99997V6.66663H9.16661V9.99997H6.66661L9.99994 14.1666L13.3333 9.99997H10.8333Z" fill="#9EA7BE"/>
</svg>
