<svg width="20" height="21" viewBox="0 0 20 21" fill="none" xmlns="http://www.w3.org/2000/svg">
<path d="M5.83401 18.0811C4.69572 17.9937 3.61415 17.5488 2.74372 16.8101C1.8733 16.0714 1.25854 15.0765 0.987225 13.9676C0.715906 12.8587 0.801901 11.6924 1.23293 10.6352C1.66396 9.57806 2.41799 8.68413 3.38734 8.08106C3.5936 6.4728 4.37884 4.99481 5.59611 3.92369C6.81338 2.85257 8.37925 2.26172 10.0007 2.26172C11.6221 2.26172 13.188 2.85257 14.4052 3.92369C15.6225 4.99481 16.4078 6.4728 16.614 8.08106C17.5834 8.68413 18.3374 9.57806 18.7684 10.6352C19.1995 11.6924 19.2854 12.8587 19.0141 13.9676C18.7428 15.0765 18.128 16.0714 17.2576 16.8101C16.3872 17.5488 15.3056 17.9937 14.1673 18.0811V18.0969H5.83401V18.0811ZM10.834 10.5969V7.26356H9.16734V10.5969H6.66734L10.0007 14.7636L13.334 10.5969H10.834Z" fill="#9EA7BE"/>
</svg>
