<svg width="108" height="108" viewBox="0 0 108 108" fill="none" xmlns="http://www.w3.org/2000/svg">
<path d="M55.1632 57.6225C53.7447 72.4482 65.4201 83.3149 80.9628 84.802L88.8524 85.5569" stroke="#F2994A" stroke-linecap="round"/>
<path d="M78.2988 96.4453L91.2133 85.7864L80.5543 72.8719" stroke="#F2994A" stroke-linecap="round"/>
<path d="M7.89477 3.76654C8.08642 3.75492 8.33089 3.92042 8.62817 4.26306C8.93671 4.59299 9.10042 4.91367 9.1193 5.2251C9.13818 5.53652 9.04221 6.43198 8.83137 7.91145C8.61981 9.37895 8.3636 10.9032 8.06275 12.4844C7.41242 16.0342 6.9495 17.8175 6.67401 17.8342C6.50632 17.8444 6.31449 17.7538 6.09851 17.5626C5.89379 17.3586 5.78671 17.1787 5.77727 17.023C5.76782 16.8673 5.79086 16.5533 5.84638 16.0811C4.74517 17.3501 3.75737 18.0111 2.88297 18.0641C2.35594 18.0961 1.8623 17.8856 1.40203 17.4326C0.953753 16.9789 0.713995 16.4945 0.682763 15.9795C0.637731 15.2368 0.781983 14.3444 1.11552 13.3024C1.46031 12.2475 1.98459 11.278 2.68836 10.3938C3.39213 9.5096 4.16923 9.04171 5.01967 8.99014C5.87011 8.93857 6.49389 9.41168 6.89101 10.4095C7.34791 7.8331 7.56163 5.80644 7.53218 4.32952C7.51039 3.97018 7.63126 3.78252 7.89477 3.76654ZM6.45334 12.7082C6.41412 12.0614 6.26728 11.5233 6.01283 11.0939C5.77035 10.6638 5.49339 10.4582 5.18197 10.477C4.66691 10.5083 4.15913 10.8576 3.65861 11.5252C3.1581 12.1927 2.7712 12.9495 2.49791 13.7956C2.23587 14.629 2.12301 15.3451 2.15932 15.944C2.1724 16.1596 2.26079 16.3286 2.42449 16.4509C2.58819 16.5732 2.77785 16.6278 2.99345 16.6148C3.46059 16.5864 4.0691 16.2129 4.81898 15.4942C5.58083 14.7748 6.11382 13.949 6.41796 13.0169L6.45879 12.798L6.45334 12.7082ZM15.0872 11.4453C15.0625 11.038 14.9733 10.6587 14.8198 10.3074C14.6655 9.94405 14.4575 9.68617 14.1958 9.53373C13.3831 9.81143 12.7093 10.4955 12.1743 11.5858C11.6506 12.6635 11.4167 13.6635 11.4726 14.5858C11.5285 15.5081 11.791 16.0693 12.26 16.2693C13.1122 16.0493 13.8073 15.418 14.3452 14.3756C14.8943 13.3204 15.1416 12.3436 15.0872 11.4453ZM10.3716 11.8935C10.7342 10.9338 11.2327 10.1342 11.8672 9.4946C12.5129 8.84232 13.1891 8.49476 13.8958 8.45191C14.6145 8.40833 15.2319 8.67745 15.7481 9.25927C16.2635 9.82912 16.5477 10.5512 16.6007 11.4256C16.653 12.2881 16.4972 13.1871 16.1331 14.1229C15.7684 15.0467 15.2328 15.8305 14.5265 16.4744C13.8315 17.1057 13.0707 17.4463 12.2442 17.4965C11.6333 17.5335 11.1072 17.2829 10.6658 16.7446C10.2244 16.2063 9.97757 15.506 9.92527 14.6436C9.87225 13.7692 10.021 12.8525 10.3716 11.8935ZM24.9554 9.69277L25.0345 13.0782C25.0911 14.0125 25.1741 14.6867 25.2834 15.1008C25.7657 14.5306 26.1708 13.8749 26.4985 13.1337C26.8375 12.3798 27.078 11.686 27.2199 11.0522C27.3737 10.4177 27.5002 9.82699 27.5993 9.27999C27.7096 8.72029 27.8149 8.2751 27.915 7.94443C28.0152 7.61376 28.1431 7.44371 28.2989 7.43426C28.5264 7.42046 28.7359 7.50394 28.9272 7.68469C29.1177 7.85347 29.2203 8.05764 29.2348 8.2972C29.2718 8.90807 29.0574 9.93093 28.5914 11.3658C28.2027 12.6877 27.6637 13.9106 26.9744 15.0344C26.2845 16.1462 25.7299 16.7148 25.3106 16.7402C24.8914 16.7656 24.5598 16.5513 24.3159 16.0972C24.0839 15.6424 23.916 14.757 23.8122 13.4408C23.7076 12.1127 23.6558 10.9618 23.6569 9.98791C22.967 12.2899 22.3395 14.0351 21.7743 15.2235C21.2092 16.4118 20.741 17.0173 20.3697 17.0398C20.202 17.05 20.0176 16.983 19.8165 16.8389C19.6274 16.6941 19.4713 16.4992 19.3483 16.2542C19.0463 15.6353 18.7453 14.4394 18.4455 12.6663C18.1568 10.8804 17.9893 9.60425 17.9428 8.83766C17.913 8.34656 18.0479 8.09193 18.3473 8.07377C18.6108 8.0578 18.8595 8.19299 19.0932 8.47937C19.339 8.76502 19.4889 9.05648 19.543 9.35375C19.5963 9.63904 19.6757 10.4517 19.781 11.7918C19.8975 13.1192 20.0832 14.2981 20.3381 15.3286C20.7776 14.4484 21.2041 13.3525 21.6174 12.0411C22.0428 10.729 22.389 9.69812 22.6562 8.94858C22.9353 8.19831 23.2066 7.81518 23.4701 7.7992C23.8654 7.77524 24.2 7.94128 24.4741 8.29735C24.7594 8.64071 24.9198 9.10585 24.9554 9.69277ZM31.8179 13.1718C32.8494 11.1496 33.6958 9.64365 34.3571 8.65381C35.0297 7.65127 35.5935 7.13619 36.0487 7.10859C36.5158 7.08027 36.9679 7.2993 37.4049 7.76571C37.8539 8.23138 38.0952 8.73972 38.1286 9.2907C38.1809 10.1531 38.0471 11.2192 37.7274 12.4888C37.1482 14.8322 36.5711 16.0213 35.9962 16.0562C35.7326 16.0722 35.59 15.9005 35.5682 15.5411C35.5529 15.2896 35.6478 14.7729 35.8529 13.9911C36.0692 13.1965 36.2626 12.4214 36.4332 11.6657C36.615 10.8973 36.6947 10.3274 36.6722 9.95608C36.6489 9.57278 36.572 9.29493 36.4413 9.12252C36.3226 8.94939 36.2034 8.86645 36.0836 8.87372C35.9758 8.88025 35.8642 8.92309 35.7487 9.00222C35.6333 9.08135 35.5028 9.20948 35.3573 9.38662C35.2237 9.56303 35.0961 9.73907 34.9746 9.91475C34.8522 10.0785 34.6983 10.3162 34.5129 10.628C34.3394 10.9391 34.1933 11.2064 34.0746 11.43C33.9552 11.6416 33.7817 11.9527 33.5542 12.3632C33.3266 12.7737 33.1531 13.0848 33.0337 13.2964C32.9143 13.508 32.7573 13.7941 32.5628 14.1545C32.3682 14.5149 32.2109 14.795 32.0907 14.9946C31.9826 15.1935 31.8575 15.4115 31.7156 15.6485C31.4431 16.1099 31.2169 16.346 31.0373 16.3569C30.8696 16.367 30.6639 16.2473 30.4204 15.9976C30.1761 15.7359 30.0478 15.5032 30.0354 15.2996C30.0318 15.2397 30.0639 15.0754 30.1318 14.8068C30.3172 14.0983 30.5168 13.2266 30.7306 12.1918C30.9436 11.145 31.0225 9.96805 30.9673 8.661C30.9502 7.78443 31.0495 7.3396 31.2651 7.32653C31.5286 7.31055 31.8005 7.43232 32.0807 7.69183C32.3609 7.95135 32.5112 8.2488 32.5315 8.58418C32.5512 8.90759 32.4878 9.54859 32.3416 10.5072C32.2066 11.4531 32.032 12.3413 31.8179 13.1718ZM42.6123 3.1761C42.7489 5.42797 42.459 8.37893 41.7426 12.029C41.2919 14.5088 40.9467 15.756 40.7072 15.7705C40.5395 15.7807 40.3338 15.6609 40.0903 15.4112C39.8587 15.1607 39.7385 14.9637 39.7298 14.8199C39.7211 14.6762 39.8498 13.923 40.1158 12.5604C40.3818 11.1978 40.6293 9.52978 40.8582 7.5563C41.0865 5.57085 41.153 3.79356 41.0579 2.22444C41.0477 2.05675 41.0644 1.93552 41.108 1.86075C41.1515 1.78597 41.2512 1.74387 41.4069 1.73442C41.5626 1.72498 41.7947 1.88523 42.1032 2.21516C42.423 2.53238 42.5927 2.8527 42.6123 3.1761ZM49.3017 9.37058C49.277 8.96332 49.1878 8.58402 49.0343 8.23267C48.88 7.86934 48.672 7.61146 48.4103 7.45902C47.5976 7.73672 46.9238 8.42076 46.3888 9.51114C45.8651 10.5888 45.6312 11.5888 45.6871 12.5111C45.743 13.4334 46.0055 13.9946 46.4744 14.1945C47.3267 13.9746 48.0218 13.3433 48.5597 12.3009C49.1088 11.2457 49.3561 10.2689 49.3017 9.37058ZM44.5861 9.81881C44.9487 8.85911 45.4472 8.05947 46.0817 7.4199C46.7274 6.76762 47.4036 6.42005 48.1103 6.3772C48.829 6.33362 49.4464 6.60274 49.9626 7.18457C50.478 7.75441 50.7622 8.47653 50.8152 9.35093C50.8675 10.2133 50.7117 11.1124 50.3476 12.0482C49.9829 12.9719 49.4473 13.7558 48.741 14.3997C48.046 15.031 47.2852 15.3716 46.4587 15.4217C45.8478 15.4588 45.3217 15.2082 44.8803 14.6699C44.4389 14.1316 44.1921 13.4313 44.1398 12.5689C44.0867 11.6945 44.2355 10.7778 44.5861 9.81881ZM56.6109 5.86173C57.1499 5.82905 57.6637 6.0744 58.1523 6.59779C58.6401 7.1092 58.8975 7.5865 58.9244 8.02968C58.9505 8.46089 58.8277 8.91316 58.5558 9.38648C58.7105 9.55743 58.7918 9.70879 58.7998 9.84055C58.8201 10.1759 58.7771 10.7556 58.6708 11.5795C58.5764 12.4028 58.5189 12.9412 58.4982 13.1949C58.4895 13.4479 58.4779 13.653 58.4634 13.8102C58.4482 13.9554 58.4269 14.1009 58.3997 14.2468C58.37 14.5492 58.2713 14.7055 58.1036 14.7156C57.888 14.7287 57.697 14.5539 57.5308 14.1913C57.3758 13.816 57.2681 13.3296 57.2079 12.7322C56.2239 14.1504 55.2768 14.887 54.3664 14.9422C53.8154 14.9756 53.2563 14.7751 52.6889 14.3407C52.1329 13.8935 51.8396 13.4184 51.8091 12.9153C51.7655 12.1966 51.9752 11.2943 52.4384 10.2083C52.9007 9.11026 53.5261 8.12259 54.3145 7.24527C55.1028 6.36794 55.8683 5.90677 56.6109 5.86173ZM57.6292 8.97381C57.5616 7.85986 57.3062 7.31632 56.8631 7.34319C56.3959 7.37152 55.8713 7.73995 55.2891 8.44849C54.7062 9.14504 54.2245 9.92563 53.8442 10.7902C53.4638 11.6548 53.2885 12.3327 53.3183 12.8238C53.3306 13.0274 53.4246 13.19 53.6003 13.3116C53.7753 13.4212 53.9765 13.4691 54.2041 13.4553C54.7671 13.4212 55.379 13.0054 56.04 12.2079C56.7002 11.3985 57.135 10.4404 57.3444 9.3337C57.3695 9.15185 57.4647 9.03788 57.6302 8.99178L57.6292 8.97381ZM67.6386 0.143779C67.8302 0.132158 68.0747 0.297664 68.3719 0.640298C68.6805 0.970228 68.8442 1.29091 68.8631 1.60234C68.882 1.91377 68.786 2.80922 68.5751 4.28869C68.3636 5.75619 68.1074 7.28049 67.8065 8.8616C67.1562 12.4115 66.6933 14.1948 66.4178 14.2115C66.2501 14.2216 66.0583 14.1311 65.8423 13.9398C65.6376 13.7358 65.5305 13.556 65.521 13.4003C65.5116 13.2445 65.5346 12.9306 65.5902 12.4583C64.4889 13.7273 63.5011 14.3883 62.6268 14.4413C62.0997 14.4733 61.6061 14.2628 61.1458 13.8098C60.6975 13.3561 60.4578 12.8717 60.4265 12.3567C60.3815 11.6141 60.5258 10.7217 60.8593 9.67959C61.2041 8.62479 61.7284 7.65528 62.4321 6.77106C63.1359 5.88684 63.913 5.41895 64.7634 5.36738C65.6139 5.31581 66.2377 5.78892 66.6348 6.78671C67.0917 4.21034 67.3054 2.18368 67.276 0.706757C67.2542 0.347417 67.375 0.159758 67.6386 0.143779ZM66.1971 9.08542C66.1579 8.43861 66.0111 7.90051 65.7566 7.47112C65.5141 7.04101 65.2372 6.8354 64.9257 6.85428C64.4107 6.88551 63.9029 7.23489 63.4024 7.90241C62.9019 8.56993 62.515 9.32673 62.2417 10.1728C61.9796 11.0062 61.8668 11.7224 61.9031 12.3213C61.9162 12.5369 62.0046 12.7058 62.1683 12.8281C62.332 12.9505 62.5216 13.0051 62.7372 12.992C63.2044 12.9637 63.8129 12.5902 64.5628 11.8715C65.3246 11.152 65.8576 10.3262 66.1617 9.39413L66.2026 9.17526L66.1971 9.08542ZM83.4561 4.23389C83.6478 4.22227 83.8601 4.35365 84.0932 4.62805C84.3375 4.88975 84.4701 5.19427 84.4912 5.54164C84.5057 5.7812 84.3096 6.61059 83.9027 8.02982C83.4959 9.44904 83.2179 10.4156 83.0687 10.9296C82.9308 11.4309 82.7372 12.1038 82.4878 12.9485C82.2498 13.7804 82.0166 14.594 81.7883 15.3893C81.2933 17.1385 80.4468 18.0494 79.249 18.122C78.5663 18.1634 77.9008 17.9934 77.2525 17.6119C76.605 17.2424 76.2677 16.8361 76.2409 16.3929C76.2307 16.2252 76.2973 16.0348 76.4407 15.8218C76.5721 15.6094 76.6916 15.5 76.7994 15.4934C76.9073 15.4869 77.0889 15.6081 77.3445 15.8571C78.0871 16.6055 78.704 16.9649 79.1951 16.9351C79.5664 16.9126 79.8818 16.5628 80.1413 15.8859C80.4016 15.2209 80.6384 14.4672 80.8518 13.6247C81.0779 12.7935 81.2004 12.3353 81.2192 12.25C81.2501 12.164 81.2795 12.054 81.3074 11.92C81.3473 11.7854 81.382 11.663 81.4114 11.5531C80.6314 12.7665 79.8282 13.3983 79.0017 13.4484C78.4986 13.4789 78.0173 13.2737 77.5578 12.8327C77.1102 12.3909 76.8672 11.8527 76.8287 11.2178C76.7902 10.583 76.894 9.71713 77.1401 8.62022C77.3861 7.52332 77.6948 6.56688 78.0661 5.75091C78.4374 4.93494 78.7548 4.51897 79.0183 4.50299C79.2339 4.48992 79.4377 4.57974 79.6297 4.77248C79.833 4.9525 79.9408 5.14433 79.9532 5.34796C79.9655 5.55158 79.8356 5.98624 79.5634 6.65194C78.7137 8.69912 78.3223 10.2737 78.3891 11.3757C78.4007 11.5673 78.4704 11.7254 78.5982 11.8499C78.7253 11.9624 78.8726 12.0136 79.0403 12.0034C79.4715 11.9773 79.9633 11.5627 80.5158 10.7598C81.0682 9.95692 81.564 9.01318 82.0031 7.92861C82.3686 7.01682 82.7372 5.85838 83.1088 4.45331C83.1487 4.31865 83.2645 4.24551 83.4561 4.23389ZM90.4643 6.87454C90.4396 6.46729 90.3505 6.08799 90.197 5.73664C90.0427 5.37331 89.8347 5.11543 89.573 4.96299C88.7603 5.24069 88.0865 5.92473 87.5515 7.01511C87.0278 8.09278 86.7939 9.09277 86.8498 10.0151C86.9057 10.9374 87.1682 11.4985 87.6371 11.6985C88.4894 11.4785 89.1844 10.8473 89.7223 9.80483C90.2715 8.74965 90.5188 7.77289 90.4643 6.87454ZM85.7488 7.32278C86.1114 6.36308 86.6099 5.56344 87.2444 4.92386C87.8901 4.27158 88.5663 3.92402 89.273 3.88116C89.9916 3.83759 90.6091 4.10671 91.1252 4.68853C91.6407 5.25838 91.9249 5.9805 91.9779 6.85489C92.0302 7.71731 91.8743 8.61639 91.5103 9.55214C91.1456 10.4759 90.61 11.2598 89.9037 11.9037C89.2086 12.5349 88.4479 12.8756 87.6214 12.9257C87.0105 12.9628 86.4844 12.7121 86.043 12.1739C85.6016 11.6356 85.3547 10.9353 85.3024 10.0728C85.2494 9.19845 85.3982 8.28176 85.7488 7.32278ZM99.3852 3.7729C99.4215 3.57835 99.4614 3.44369 99.505 3.36891C99.5485 3.29414 99.6482 3.25203 99.8039 3.24259C99.9716 3.23242 100.179 3.37615 100.425 3.67378C100.684 3.97068 100.821 4.26287 100.839 4.55034C100.848 4.70605 100.641 5.64434 100.216 7.36519C99.7915 9.08605 99.4656 10.4523 99.2384 11.4639C99.1252 11.9757 98.9368 12.2396 98.6733 12.2555C98.5176 12.265 98.3819 12.2071 98.2661 12.0819C98.1503 11.9567 98.0818 11.7204 98.0608 11.373C98.0397 11.0256 98.1393 10.3884 98.3596 9.46141C97.9059 10.3064 97.4016 11.0102 96.8467 11.5729C96.2917 12.1355 95.7687 12.4317 95.2776 12.4615C94.7984 12.4905 94.3295 12.2905 93.8707 11.8615C93.4119 11.4325 93.1679 10.9784 93.1389 10.4993C93.0699 9.3614 93.3132 7.92203 93.8689 6.18121C94.4358 4.42768 94.9408 3.53748 95.384 3.5106C95.5996 3.49753 95.7914 3.58808 95.9595 3.78227C96.1388 3.96375 96.2361 4.18026 96.2513 4.43179C96.2579 4.5396 96.1198 4.93869 95.837 5.62907C95.5536 6.30747 95.2774 7.10565 95.0085 8.02361C94.7388 8.92959 94.6243 9.71797 94.665 10.3887C94.6766 10.5804 94.7463 10.7385 94.8741 10.8629C95.0011 10.9755 95.1485 11.0266 95.3162 11.0165C95.7713 10.9889 96.286 10.5549 96.8602 9.71463C97.4464 8.87361 97.9647 7.90446 98.4151 6.80718C98.8655 5.70991 99.1889 4.69848 99.3852 3.7729ZM102.855 5.25758L102.72 3.91332C102.686 3.35036 102.8 3.06089 103.064 3.04491C103.291 3.03111 103.516 3.16776 103.738 3.45486C103.971 3.72926 104.1 4.07008 104.125 4.47734C104.149 4.87261 104.155 5.17279 104.143 5.37786C105.089 3.73358 106.03 2.88311 106.964 2.82645C107.551 2.79086 107.853 2.91681 107.87 3.20428C107.879 3.34801 107.821 3.48377 107.697 3.61154C107.572 3.73931 107.371 3.88976 107.093 4.06291C106.475 4.3769 105.962 4.8348 105.553 5.43662C105.156 6.02573 104.842 6.68798 104.61 7.42337C104.378 8.15875 104.193 8.77708 104.055 9.27835C103.929 9.77889 103.833 10.1694 103.765 10.45C103.698 10.7306 103.619 11.0059 103.527 11.276C103.364 11.7667 103.157 12.0197 102.906 12.035C102.702 12.0473 102.528 11.9437 102.382 11.7241C102.248 11.4918 102.174 11.2678 102.161 11.0522C102.147 10.8247 102.222 10.3753 102.386 9.70416C102.785 8.16516 102.942 6.68296 102.855 5.25758ZM24.1566 45.8274C23.4619 45.8695 22.7927 45.6396 22.1492 45.1376C21.5049 44.6237 21.1602 43.9954 21.1152 43.2527C21.0694 42.4981 21.2683 41.6145 21.7118 40.6018C22.1553 39.5891 22.7513 38.7114 23.4997 37.9687C24.2601 37.2253 25.0176 36.8308 25.7722 36.785C26.2633 36.7552 26.708 36.9507 27.1062 37.3713C27.5044 37.792 27.7136 38.17 27.734 38.5054C27.7398 38.6012 27.7149 38.6869 27.6594 38.7624C27.6031 38.8259 27.5151 38.8613 27.3953 38.8686C27.2875 38.8751 27.0834 38.7793 26.7828 38.5811C26.4823 38.383 26.2182 38.2908 25.9906 38.3046C25.3438 38.3438 24.6237 38.9585 23.8303 40.1487C23.0369 41.3389 22.6659 42.3592 22.7175 43.2097C22.74 43.581 22.8716 43.8676 23.1123 44.0694C23.3649 44.2704 23.7488 44.3554 24.2638 44.3241C24.7908 44.2922 25.2663 44.2032 25.6903 44.0573C26.1255 43.8987 26.4592 43.7522 26.6915 43.6179C26.9231 43.4716 27.1047 43.3945 27.2365 43.3865C27.4641 43.3727 27.5848 43.4796 27.5986 43.7072C27.6196 44.0545 27.2251 44.4872 26.415 45.0052C25.6161 45.5105 24.8633 45.7845 24.1566 45.8274ZM34.3357 39.3314C34.311 38.9241 34.2219 38.5448 34.0683 38.1934C33.9141 37.8301 33.7061 37.5722 33.4444 37.4198C32.6317 37.6975 31.9578 38.3815 31.4229 39.4719C30.8991 40.5496 30.6652 41.5496 30.7212 42.4719C30.7771 43.3942 31.0395 43.9553 31.5085 44.1553C32.3607 43.9353 33.0558 43.3041 33.5937 42.2616C34.1428 41.2065 34.3902 40.2297 34.3357 39.3314ZM29.6202 39.7796C29.9828 38.8199 30.4813 38.0202 31.1157 37.3807C31.7614 36.7284 32.4376 36.3808 33.1443 36.338C33.863 36.2944 34.4804 36.5635 34.9966 37.1453C35.512 37.7152 35.7963 38.4373 35.8493 39.3117C35.9016 40.1741 35.7457 41.0732 35.3817 42.009C35.0169 42.9327 34.4814 43.7166 33.7751 44.3605C33.08 44.9917 32.3192 45.3324 31.4927 45.3825C30.8819 45.4196 30.3557 45.169 29.9143 44.6307C29.473 44.0924 29.2261 43.3921 29.1738 42.5297C29.1208 41.6553 29.2696 40.7386 29.6202 39.7796ZM42.7377 35.7022C43.2527 35.6709 43.7159 35.9734 44.1272 36.6097C44.5504 37.2453 44.7835 37.9164 44.8263 38.6231C44.8684 39.3178 44.7073 40.0309 44.3429 40.7623C43.9778 41.4817 43.5125 42.1351 42.947 42.7224C42.3815 43.3097 41.7447 43.8111 41.0365 44.2267C40.3396 44.6297 39.6858 44.8496 39.0749 44.8867C38.8353 44.9012 38.6059 44.8851 38.3867 44.8383C38.3511 45.0448 38.2894 45.4152 38.2016 45.9495C38.1138 46.4838 38.0385 46.9272 37.9757 47.2796C37.9129 47.6321 37.8396 48.0092 37.7558 48.411C37.5896 49.2386 37.4226 49.6574 37.2549 49.6676C37.0872 49.6778 36.9056 49.5566 36.7099 49.3039C36.503 49.064 36.3934 48.8422 36.381 48.6386C36.3687 48.435 36.5073 47.549 36.7969 45.9806C37.6643 41.2514 38.0489 38.0783 37.9509 36.4613C37.9291 36.1019 38.0499 35.9143 38.3134 35.8983C38.5291 35.8852 38.7964 36.0313 39.1154 36.3366C39.4458 36.6291 39.6225 36.967 39.6458 37.3503C39.6574 37.542 39.6462 37.753 39.612 37.9835C40.5938 36.5294 41.6357 35.769 42.7377 35.7022ZM38.8102 43.4962C39.4451 43.4577 40.1147 43.2007 40.8193 42.7251C41.5357 42.2489 42.1301 41.6418 42.6023 40.9039C43.0857 40.1532 43.306 39.4246 43.2632 38.7179C43.2029 37.7237 42.9392 37.2408 42.472 37.2691C42.0049 37.2974 41.3944 37.7372 40.6405 38.5884C39.8987 39.4388 39.333 40.5191 38.9436 41.829L38.6306 43.5071L38.8102 43.4962ZM52.4708 35.1661C52.6624 35.1544 52.8748 35.2858 53.1078 35.5602C53.3521 35.8219 53.4848 36.1264 53.5058 36.4738C53.5204 36.7134 53.3242 37.5428 52.9174 38.962C52.5105 40.3812 52.2325 41.3478 52.0834 41.8618C51.9454 42.363 51.7518 43.036 51.5025 43.8806C51.2644 44.7126 51.0312 45.5262 50.8029 46.3215C50.3079 48.0706 49.4615 48.9815 48.2637 49.0542C47.5809 49.0956 46.9154 48.9255 46.2671 48.5441C45.6196 48.1746 45.2824 47.7683 45.2555 47.3251C45.2453 47.1574 45.3119 46.967 45.4553 46.7539C45.5867 46.5416 45.7063 46.4321 45.8141 46.4256C45.9219 46.4191 46.1036 46.5403 46.3591 46.7893C47.1018 47.5377 47.7186 47.897 48.2097 47.8672C48.5811 47.8447 48.8965 47.495 49.156 46.8181C49.4162 46.1531 49.653 45.3994 49.8664 44.5569C50.0925 43.7257 50.215 43.2674 50.2339 43.1821C50.2647 43.0961 50.2941 42.9861 50.3221 42.8522C50.362 42.7175 50.3967 42.5952 50.426 42.4852C49.6461 43.6987 48.8428 44.3304 48.0163 44.3806C47.5133 44.4111 47.032 44.2058 46.5724 43.7648C46.1249 43.3231 45.8818 42.7848 45.8434 42.15C45.8049 41.5152 45.9086 40.6493 46.1547 39.5524C46.4008 38.4555 46.7094 37.499 47.0807 36.6831C47.452 35.8671 47.7694 35.4511 48.0329 35.4352C48.2485 35.4221 48.4524 35.5119 48.6444 35.7046C48.8476 35.8847 48.9554 36.0765 48.9678 36.2801C48.9801 36.4837 48.8502 36.9184 48.578 37.5841C47.7284 39.6313 47.3369 41.2059 47.4038 42.3078C47.4154 42.4995 47.4851 42.6576 47.6129 42.7821C47.7399 42.8946 47.8873 42.9457 48.055 42.9356C48.4862 42.9094 48.978 42.4949 49.5304 41.692C50.0828 40.8891 50.5786 39.9453 51.0178 38.8608C51.3832 37.949 51.7518 36.7905 52.1234 35.3855C52.1634 35.2508 52.2791 35.1777 52.4708 35.1661ZM63.1907 40.3227C64.2222 38.3005 65.0686 36.7945 65.7299 35.8047C66.4024 34.8021 66.9663 34.2871 67.4214 34.2595C67.8886 34.2311 68.3407 34.4502 68.7777 34.9166C69.2267 35.3823 69.4679 35.8906 69.5013 36.4416C69.5536 37.304 69.4199 38.37 69.1002 39.6397C68.5209 41.9831 67.9439 43.1722 67.3689 43.2071C67.1054 43.223 66.9627 43.0514 66.941 42.692C66.9257 42.4405 67.0206 41.9238 67.2257 41.1419C67.442 40.3474 67.6354 39.5723 67.806 38.8166C67.9878 38.0481 68.0674 37.4783 68.0449 37.107C68.0217 36.7237 67.9447 36.4458 67.8141 36.2734C67.6954 36.1003 67.5761 36.0173 67.4563 36.0246C67.3485 36.0311 67.2369 36.074 67.1215 36.1531C67.0061 36.2322 66.8756 36.3604 66.7301 36.5375C66.5965 36.7139 66.4689 36.8899 66.3473 37.0656C66.225 37.2293 66.0711 37.4671 65.8856 37.7789C65.7121 38.09 65.5661 38.3573 65.4474 38.5809C65.328 38.7925 65.1545 39.1036 64.9269 39.5141C64.6993 39.9246 64.5258 40.2357 64.4064 40.4473C64.287 40.6589 64.1301 40.9449 63.9355 41.3054C63.741 41.6658 63.5836 41.9459 63.4635 42.1455C63.3553 42.3444 63.2303 42.5624 63.0884 42.7994C62.8158 43.2607 62.5897 43.4969 62.41 43.5078C62.2423 43.5179 62.0367 43.3981 61.7931 43.1484C61.5489 42.8867 61.4205 42.6541 61.4082 42.4505C61.4046 42.3906 61.4367 42.2263 61.5045 41.9577C61.69 41.2492 61.8896 40.3775 62.1034 39.3427C62.3164 38.2959 62.3953 37.1189 62.3401 35.8119C62.323 34.9353 62.4223 34.4905 62.6379 34.4774C62.9014 34.4614 63.1732 34.5832 63.4535 34.8427C63.7337 35.1022 63.884 35.3997 63.9043 35.7351C63.9239 36.0585 63.8606 36.6995 63.7143 37.6581C63.5794 38.604 63.4048 39.4922 63.1907 40.3227ZM76.2704 36.7885C76.2457 36.3813 76.1566 36.002 76.003 35.6506C75.8488 35.2873 75.6408 35.0294 75.3791 34.877C74.5664 35.1547 73.8925 35.8387 73.3576 36.9291C72.8338 38.0067 72.5999 39.0067 72.6559 39.929C72.7118 40.8513 72.9742 41.4125 73.4432 41.6125C74.2954 41.3925 74.9905 40.7613 75.5284 39.7188C76.0775 38.6636 76.3249 37.6869 76.2704 36.7885ZM71.5549 37.2367C71.9175 36.277 72.416 35.4774 73.0504 34.8378C73.6961 34.1855 74.3723 33.838 75.079 33.7951C75.7977 33.7515 76.4151 34.0207 76.9313 34.6025C77.4467 35.1723 77.731 35.8945 77.784 36.7689C77.8363 37.6313 77.6804 38.5304 77.3164 39.4661C76.9516 40.3899 76.4161 41.1737 75.7098 41.8177C75.0147 42.4489 74.2539 42.7896 73.4274 42.8397C72.8166 42.8767 72.2904 42.6261 71.849 42.0878C71.4076 41.5496 71.1608 40.8492 71.1085 39.9868C71.0555 39.1124 71.2043 38.1957 71.5549 37.2367ZM86.1387 35.036L86.2177 38.4214C86.2744 39.3557 86.3573 40.0299 86.4666 40.4441C86.949 39.8738 87.354 39.2181 87.6818 38.4769C88.0207 37.723 88.2612 37.0292 88.4031 36.3954C88.557 35.761 88.6834 35.1702 88.7825 34.6232C88.8928 34.0635 88.9981 33.6183 89.0983 33.2877C89.1984 32.957 89.3264 32.7869 89.4821 32.7775C89.7097 32.7637 89.9191 32.8472 90.1104 33.0279C90.301 33.1967 90.4035 33.4009 90.418 33.6404C90.4551 34.2513 90.2406 35.2742 89.7746 36.709C89.3859 38.0309 88.8469 39.2538 88.1577 40.3776C87.4677 41.4894 86.9131 42.058 86.4939 42.0834C86.0746 42.1088 85.7431 41.8945 85.4991 41.4404C85.2672 40.9857 85.0993 40.1002 84.9954 38.7841C84.8908 37.456 84.8391 36.305 84.8401 35.3311C84.1502 37.6331 83.5227 39.3783 82.9576 40.5667C82.3925 41.7551 81.9243 42.3605 81.5529 42.383C81.3853 42.3932 81.2009 42.3262 80.9998 42.1821C80.8107 42.0373 80.6546 41.8424 80.5315 41.5974C80.2295 40.9786 79.9286 39.7826 79.6287 38.0095C79.3401 36.2237 79.1725 34.9475 79.126 34.1809C79.0963 33.6898 79.2311 33.4352 79.5306 33.417C79.7941 33.401 80.0427 33.5362 80.2765 33.8226C80.5222 34.1082 80.6721 34.3997 80.7262 34.697C80.7796 34.9823 80.8589 35.795 80.9642 37.135C81.0808 38.4624 81.2665 39.6413 81.5213 40.6718C81.9608 39.7916 82.3873 38.6958 82.8007 37.3843C83.226 36.0722 83.5723 35.0413 83.8394 34.2918C84.1185 33.5415 84.3898 33.1584 84.6533 33.1424C85.0486 33.1185 85.3833 33.2845 85.6573 33.6406C85.9426 33.9839 86.1031 34.4491 86.1387 35.036Z" fill="#F9B939"/>
</svg>
