<svg width="53" height="29" viewBox="0 0 53 29" fill="none" xmlns="http://www.w3.org/2000/svg">
<rect width="53" height="28.4621" rx="2" fill="#63C779"/>
<path d="M18.0188 10.656C18.0188 10.8147 17.9395 10.894 17.7808 10.894H13.2868C13.2308 10.894 13.2028 10.922 13.2028 10.978V13.12C13.2028 13.176 13.2308 13.204 13.2868 13.204H16.2128C16.3715 13.204 16.4508 13.2833 16.4508 13.442V14.66C16.4508 14.8187 16.3715 14.898 16.2128 14.898H13.2868C13.2308 14.898 13.2028 14.926 13.2028 14.982V18.762C13.2028 18.9207 13.1235 19 12.9648 19H11.4668C11.3082 19 11.2288 18.9207 11.2288 18.762V9.438C11.2288 9.27933 11.3082 9.2 11.4668 9.2H17.7808C17.9395 9.2 18.0188 9.27933 18.0188 9.438V10.656ZM24.7748 19C24.6535 19 24.5602 18.9393 24.4948 18.818L22.7728 15.01C22.7542 14.9633 22.7215 14.94 22.6748 14.94H21.4008C21.3448 14.94 21.3168 14.968 21.3168 15.024V18.762C21.3168 18.9207 21.2375 19 21.0788 19H19.5808C19.4222 19 19.3428 18.9207 19.3428 18.762V9.424C19.3428 9.26533 19.4222 9.186 19.5808 9.186H23.5148C24.1122 9.186 24.6348 9.312 25.0828 9.564C25.5402 9.80667 25.8902 10.152 26.1328 10.6C26.3848 11.048 26.5108 11.5613 26.5108 12.14C26.5108 12.7747 26.3522 13.3207 26.0348 13.778C25.7175 14.2353 25.2788 14.5573 24.7188 14.744C24.6908 14.7533 24.6722 14.772 24.6628 14.8C24.6535 14.8187 24.6582 14.8373 24.6768 14.856L26.5248 18.72C26.5528 18.7573 26.5668 18.7993 26.5668 18.846C26.5668 18.8927 26.5482 18.93 26.5108 18.958C26.4735 18.986 26.4222 19 26.3568 19H24.7748ZM21.4008 10.894C21.3448 10.894 21.3168 10.922 21.3168 10.978V13.33C21.3168 13.386 21.3448 13.414 21.4008 13.414H23.2208C23.6128 13.414 23.9302 13.302 24.1728 13.078C24.4248 12.8447 24.5508 12.5413 24.5508 12.168C24.5508 11.7947 24.4248 11.4913 24.1728 11.258C23.9302 11.0153 23.6128 10.894 23.2208 10.894H21.4008ZM35.0264 10.656C35.0264 10.8147 34.9471 10.894 34.7884 10.894H30.2804C30.2244 10.894 30.1964 10.922 30.1964 10.978V13.12C30.1964 13.176 30.2244 13.204 30.2804 13.204H33.2064C33.3651 13.204 33.4444 13.2833 33.4444 13.442V14.66C33.4444 14.8187 33.3651 14.898 33.2064 14.898H30.2804C30.2244 14.898 30.1964 14.926 30.1964 14.982V17.222C30.1964 17.278 30.2244 17.306 30.2804 17.306H34.7884C34.9471 17.306 35.0264 17.3853 35.0264 17.544V18.762C35.0264 18.9207 34.9471 19 34.7884 19H28.4604C28.3018 19 28.2224 18.9207 28.2224 18.762V9.438C28.2224 9.27933 28.3018 9.2 28.4604 9.2H34.7884C34.9471 9.2 35.0264 9.27933 35.0264 9.438V10.656ZM43.4822 10.656C43.4822 10.8147 43.4029 10.894 43.2442 10.894H38.7362C38.6802 10.894 38.6522 10.922 38.6522 10.978V13.12C38.6522 13.176 38.6802 13.204 38.7362 13.204H41.6622C41.8209 13.204 41.9002 13.2833 41.9002 13.442V14.66C41.9002 14.8187 41.8209 14.898 41.6622 14.898H38.7362C38.6802 14.898 38.6522 14.926 38.6522 14.982V17.222C38.6522 17.278 38.6802 17.306 38.7362 17.306H43.2442C43.4029 17.306 43.4822 17.3853 43.4822 17.544V18.762C43.4822 18.9207 43.4029 19 43.2442 19H36.9162C36.7576 19 36.6782 18.9207 36.6782 18.762V9.438C36.6782 9.27933 36.7576 9.2 36.9162 9.2H43.2442C43.4029 9.2 43.4822 9.27933 43.4822 9.438V10.656Z" fill="black"/>
</svg>
