<svg width="60" height="30" viewBox="0 0 60 30" fill="none" xmlns="http://www.w3.org/2000/svg">
<rect y="0.597656" width="60" height="29" rx="2" fill="#63C779"/>
<path d="M20.3073 11.1417C20.3073 11.195 20.2859 11.243 20.2433 11.2857C20.2113 11.3177 20.1686 11.3337 20.1153 11.3337H14.8833C14.8299 11.3337 14.8033 11.3603 14.8033 11.4137V13.8937C14.8033 13.947 14.8299 13.9737 14.8833 13.9737H18.3233C18.3766 13.9737 18.4193 13.995 18.4513 14.0377C18.4939 14.0697 18.5153 14.1123 18.5153 14.1657V15.7177C18.5153 15.771 18.4939 15.819 18.4513 15.8617C18.4193 15.8937 18.3766 15.9097 18.3233 15.9097H14.8833C14.8299 15.9097 14.8033 15.9363 14.8033 15.9897V20.4057C14.8033 20.459 14.7819 20.507 14.7393 20.5497C14.7073 20.5817 14.6646 20.5977 14.6113 20.5977H12.7393C12.6859 20.5977 12.6379 20.5817 12.5953 20.5497C12.5633 20.507 12.5473 20.459 12.5473 20.4057V9.58966C12.5473 9.53632 12.5633 9.49366 12.5953 9.46166C12.6379 9.41899 12.6859 9.39766 12.7393 9.39766H20.1153C20.1686 9.39766 20.2113 9.41899 20.2433 9.46166C20.2859 9.49366 20.3073 9.53632 20.3073 9.58966V11.1417ZM27.9644 20.5977C27.8577 20.5977 27.783 20.5497 27.7404 20.4537L25.7404 16.0217C25.719 15.979 25.687 15.9577 25.6444 15.9577H24.1564C24.103 15.9577 24.0764 15.9843 24.0764 16.0377V20.4057C24.0764 20.459 24.055 20.507 24.0124 20.5497C23.9804 20.5817 23.9377 20.5977 23.8844 20.5977H22.0124C21.959 20.5977 21.911 20.5817 21.8684 20.5497C21.8364 20.507 21.8204 20.459 21.8204 20.4057V9.58966C21.8204 9.53632 21.8364 9.49366 21.8684 9.46166C21.911 9.41899 21.959 9.39766 22.0124 9.39766H26.5884C27.271 9.39766 27.8684 9.53632 28.3804 9.81366C28.903 10.091 29.303 10.4857 29.5804 10.9977C29.8684 11.5097 30.0124 12.1017 30.0124 12.7737C30.0124 13.499 29.831 14.123 29.4684 14.6457C29.1057 15.1577 28.599 15.5203 27.9484 15.7337C27.895 15.755 27.879 15.7923 27.9004 15.8457L30.0764 20.3737C30.0977 20.4163 30.1084 20.4483 30.1084 20.4697C30.1084 20.555 30.0497 20.5977 29.9324 20.5977H27.9644ZM24.1564 11.3337C24.103 11.3337 24.0764 11.3603 24.0764 11.4137V14.1497C24.0764 14.203 24.103 14.2297 24.1564 14.2297H26.2524C26.7004 14.2297 27.063 14.0963 27.3404 13.8297C27.6284 13.563 27.7724 13.2163 27.7724 12.7897C27.7724 12.363 27.6284 12.0163 27.3404 11.7497C27.063 11.4723 26.7004 11.3337 26.2524 11.3337H24.1564ZM39.7445 11.1417C39.7445 11.195 39.7232 11.243 39.6805 11.2857C39.6485 11.3177 39.6058 11.3337 39.5525 11.3337H34.3045C34.2512 11.3337 34.2245 11.3603 34.2245 11.4137V13.8937C34.2245 13.947 34.2512 13.9737 34.3045 13.9737H37.7445C37.7978 13.9737 37.8405 13.995 37.8725 14.0377C37.9152 14.0697 37.9365 14.1123 37.9365 14.1657V15.7177C37.9365 15.771 37.9152 15.819 37.8725 15.8617C37.8405 15.8937 37.7978 15.9097 37.7445 15.9097H34.3045C34.2512 15.9097 34.2245 15.9363 34.2245 15.9897V18.5817C34.2245 18.635 34.2512 18.6617 34.3045 18.6617H39.5525C39.6058 18.6617 39.6485 18.683 39.6805 18.7257C39.7232 18.7577 39.7445 18.8003 39.7445 18.8537V20.4057C39.7445 20.459 39.7232 20.507 39.6805 20.5497C39.6485 20.5817 39.6058 20.5977 39.5525 20.5977H32.1605C32.1072 20.5977 32.0592 20.5817 32.0165 20.5497C31.9845 20.507 31.9685 20.459 31.9685 20.4057V9.58966C31.9685 9.53632 31.9845 9.49366 32.0165 9.46166C32.0592 9.41899 32.1072 9.39766 32.1605 9.39766H39.5525C39.6058 9.39766 39.6485 9.41899 39.6805 9.46166C39.7232 9.49366 39.7445 9.53632 39.7445 9.58966V11.1417ZM49.4083 11.1417C49.4083 11.195 49.3869 11.243 49.3443 11.2857C49.3123 11.3177 49.2696 11.3337 49.2163 11.3337H43.9683C43.9149 11.3337 43.8883 11.3603 43.8883 11.4137V13.8937C43.8883 13.947 43.9149 13.9737 43.9683 13.9737H47.4083C47.4616 13.9737 47.5043 13.995 47.5363 14.0377C47.5789 14.0697 47.6003 14.1123 47.6003 14.1657V15.7177C47.6003 15.771 47.5789 15.819 47.5363 15.8617C47.5043 15.8937 47.4616 15.9097 47.4083 15.9097H43.9683C43.9149 15.9097 43.8883 15.9363 43.8883 15.9897V18.5817C43.8883 18.635 43.9149 18.6617 43.9683 18.6617H49.2163C49.2696 18.6617 49.3123 18.683 49.3443 18.7257C49.3869 18.7577 49.4083 18.8003 49.4083 18.8537V20.4057C49.4083 20.459 49.3869 20.507 49.3443 20.5497C49.3123 20.5817 49.2696 20.5977 49.2163 20.5977H41.8243C41.7709 20.5977 41.7229 20.5817 41.6803 20.5497C41.6483 20.507 41.6323 20.459 41.6323 20.4057V9.58966C41.6323 9.53632 41.6483 9.49366 41.6803 9.46166C41.7229 9.41899 41.7709 9.39766 41.8243 9.39766H49.2163C49.2696 9.39766 49.3123 9.41899 49.3443 9.46166C49.3869 9.49366 49.4083 9.53632 49.4083 9.58966V11.1417Z" fill="white"/>
</svg>
