<svg width="56" height="31" viewBox="0 0 56 31" fill="none" xmlns="http://www.w3.org/2000/svg">
<g clip-path="url(#clip0)">
<path d="M55.3958 10.8659C52.682 10.8659 50.1508 10.891 47.6113 10.8408C47.271 10.8324 46.798 10.5229 46.6237 10.2134C45.1382 7.6705 42.8311 6.94276 40.1173 7.25226C37.5529 7.53666 35.9595 9.09252 35.2375 11.5183C34.391 14.354 34.3827 17.2148 35.4118 20.0086C36.3163 22.4679 38.1255 23.731 40.7397 23.8481C43.329 23.9568 45.4287 23.1036 46.6486 20.6945C46.9806 20.0337 47.3457 19.858 48.018 19.8664C50.433 19.8999 52.848 19.8831 55.3958 19.8831C54.9144 22.7104 53.7941 25.1195 51.7857 27.0351C48.3416 30.3392 44.1257 31.3178 39.5198 30.9414C39.1546 30.908 38.6982 30.5901 38.499 30.2722C34.615 24.0572 30.756 17.8338 26.9385 11.5769C26.6895 11.167 26.6729 10.4727 26.814 9.98756C28.3078 5.06068 31.4863 1.7984 36.4989 0.60223C41.387 -0.560479 46.1092 -0.117144 50.3666 2.83564C53.1385 4.74282 54.6738 7.46138 55.3958 10.8659Z" fill="white"/>
<path d="M16.963 1.66464L12.357 9.49411C12.2824 9.61958 12.2824 9.77851 12.357 9.90398L24.6645 30.7491C24.7392 30.8662 24.8637 30.9415 25.0047 30.9415H34.2333C34.5403 30.9415 34.7312 30.6069 34.5735 30.3392L17.6435 1.673C17.4941 1.40533 17.1207 1.40533 16.963 1.66464Z" fill="url(#paint0_linear)"/>
<path d="M9.64338 14.1114L0.058013 30.3391C-0.0996683 30.6068 0.0912091 30.9414 0.398273 30.9414H9.62678C9.76787 30.9414 9.89235 30.8661 9.96704 30.749L14.9382 22.334C15.0128 22.2085 15.0128 22.0496 14.9382 21.9241L10.3239 14.1114C10.1662 13.8437 9.79276 13.8437 9.64338 14.1114Z" fill="url(#paint1_linear)"/>
</g>
<defs>
<linearGradient id="paint0_linear" x1="16.1954" y1="7.90462" x2="24.8225" y2="22.1145" gradientUnits="userSpaceOnUse">
<stop stop-color="#F9D33B"/>
<stop offset="1" stop-color="#F9AF38"/>
</linearGradient>
<linearGradient id="paint1_linear" x1="1.75178" y1="16.6735" x2="10.3788" y2="30.8835" gradientUnits="userSpaceOnUse">
<stop stop-color="#F9D33B"/>
<stop offset="1" stop-color="#F9AF38"/>
</linearGradient>
<clipPath id="clip0">
<rect width="55.4042" height="31" fill="white"/>
</clipPath>
</defs>
</svg>
