<svg width="31" height="31" viewBox="0 0 31 31" fill="none" xmlns="http://www.w3.org/2000/svg">
<path d="M15.5007 30.9163C6.98603 30.9163 0.0839844 24.0143 0.0839844 15.4997C0.0839844 6.98505 6.98603 0.0830078 15.5007 0.0830078C24.0153 0.0830078 30.9173 6.98505 30.9173 15.4997C30.9173 24.0143 24.0153 30.9163 15.5007 30.9163ZM13.959 20.1247V23.208H17.0423V20.1247H13.959ZM17.0423 17.5886C18.2813 17.2152 19.345 16.4092 20.0396 15.3174C20.7342 14.2255 21.0135 12.9206 20.8267 11.6401C20.6399 10.3596 19.9994 9.18877 19.0218 8.34088C18.0443 7.49299 16.7947 7.02442 15.5007 7.02051C14.2532 7.02041 13.0443 7.45241 12.0794 8.24304C11.1145 9.03367 10.4533 10.1341 10.2081 11.3572L13.2329 11.9631C13.3187 11.5336 13.5247 11.1374 13.827 10.8204C14.1292 10.5035 14.5152 10.2789 14.9401 10.1728C15.365 10.0666 15.8113 10.0834 16.2271 10.221C16.6429 10.3586 17.011 10.6114 17.2887 10.9501C17.5664 11.2887 17.7422 11.6993 17.7957 12.134C17.8492 12.5687 17.7781 13.0096 17.5908 13.4054C17.4035 13.8013 17.1076 14.1359 16.7376 14.3701C16.3675 14.6044 15.9386 14.7288 15.5007 14.7288C15.0918 14.7288 14.6996 14.8913 14.4105 15.1804C14.1214 15.4695 13.959 15.8616 13.959 16.2705V18.583H17.0423V17.5886Z" fill="black"/>
</svg>
