<svg width="144" height="122" viewBox="0 0 144 122" fill="none" xmlns="http://www.w3.org/2000/svg">
<path d="M63.13 71.7123C61.7115 86.538 73.3869 97.4048 88.9296 98.8919L96.8192 99.6467" stroke="#F2994A" stroke-linecap="round"/>
<path d="M86.2656 110.535L99.18 99.8762L88.5211 86.9618" stroke="#F2994A" stroke-linecap="round"/>
<path d="M2.68173 21.4527C2.69553 21.6803 2.83419 21.7861 3.09771 21.7701C3.55287 21.7425 4.09623 21.5833 4.72779 21.2926C5.3706 20.9891 5.72794 20.8352 5.79981 20.8308C6.01542 20.8177 6.13012 20.925 6.14392 21.1526C6.16498 21.4999 5.82997 21.923 5.13889 22.4217C4.45979 22.9198 3.82678 23.1866 3.23986 23.2221C2.66491 23.257 2.17635 23.1304 1.77417 22.8422C1.37126 22.542 1.15964 22.2242 1.13931 21.8888C1.11897 21.5535 1.16505 21.1239 1.27756 20.6001C1.38933 20.0644 1.5512 19.3633 1.76314 18.4969C1.98634 17.6177 2.15873 16.892 2.28031 16.3196C1.72533 16.4855 1.35202 16.5742 1.16037 16.5858C0.968718 16.5975 0.771259 16.5133 0.56799 16.3332C0.375973 16.1405 0.274516 15.9543 0.263621 15.7746C0.24619 15.4872 1.00806 15.1645 2.54922 14.8065C2.70454 13.7993 2.75895 12.9124 2.71247 12.1458C2.69068 11.7864 2.79956 11.5995 3.03912 11.585C3.24275 11.5726 3.50228 11.6891 3.81771 11.9345C4.13241 12.1679 4.29957 12.4463 4.31918 12.7697C4.33879 13.0931 4.27148 13.6682 4.11724 14.495C4.79635 14.3938 5.33954 14.3308 5.74679 14.3061C6.46547 14.2625 6.83425 14.3964 6.85314 14.7078C6.86403 14.8875 6.67547 15.0492 6.28746 15.193C5.91143 15.336 5.10818 15.571 3.87772 15.8981C3.68357 16.8596 3.43188 17.9629 3.12267 19.2079C2.81273 20.4409 2.66575 21.1892 2.68173 21.4527ZM9.04371 9.57985C9.01538 9.1127 9.14495 8.87042 9.43243 8.85299C9.66001 8.83919 9.91046 9.00433 10.1838 9.34842C10.4691 9.69178 10.6219 10.0312 10.6423 10.3665C10.6895 11.1451 10.5725 12.4866 10.2912 14.3912C10.0212 16.283 9.63145 18.182 9.1219 20.0884C10.1882 17.8477 11.0936 16.224 11.838 15.2171C12.5937 14.1974 13.259 13.6702 13.834 13.6353C14.1454 13.6165 14.5211 13.8642 14.961 14.3785C15.4129 14.8921 15.6552 15.4184 15.6879 15.9574C15.7206 16.4964 15.6199 17.314 15.3858 18.4102C14.8073 21.1622 14.1887 22.5582 13.5299 22.5982C13.2664 22.6142 13.1237 22.4425 13.1019 22.0831C13.0801 21.7238 13.1872 21.1102 13.4231 20.2423C13.9454 18.3472 14.1869 17.0763 14.1477 16.4295C14.1346 16.2139 14.0698 16.0375 13.9533 15.9003C13.8367 15.7631 13.7006 15.6992 13.5449 15.7086C13.3892 15.7181 13.2026 15.8135 12.9852 15.995C12.7678 16.1765 12.5101 16.4867 12.2121 16.9255C11.8376 17.4892 11.449 18.1199 11.0465 18.8176C10.656 19.5145 10.4172 19.9377 10.33 20.0873C10.2542 20.2241 10.1134 20.4791 9.90758 20.8522C9.71376 21.2246 9.5684 21.504 9.47149 21.6902C9.37386 21.8644 9.25336 22.058 9.10999 22.2711C8.85847 22.6831 8.66084 22.8934 8.5171 22.9021C8.37337 22.9109 8.17373 22.7907 7.91819 22.5417C7.66192 22.2808 7.52834 22.0605 7.51745 21.8808C7.50583 21.6891 7.55028 21.3318 7.65081 20.8087C8.11025 18.4727 8.39205 16.8747 8.49619 16.0148C8.9302 12.8627 9.11271 10.7178 9.04371 9.57985ZM18.9639 10.7636C18.9494 10.524 19.0314 10.2906 19.21 10.0634C19.3886 9.83617 19.5737 9.71675 19.7653 9.70513C19.969 9.69278 20.2234 9.9238 20.5287 10.3982C20.8332 10.8606 20.9953 11.2535 21.0149 11.5769C21.0222 11.6967 20.9748 11.8078 20.8728 11.9101C20.7708 12.0125 20.66 12.0673 20.5402 12.0746C20.2527 12.092 19.9188 11.9379 19.5384 11.6124C19.1699 11.2861 18.9785 11.0031 18.9639 10.7636ZM19.0288 13.3203C19.2564 13.3065 19.4803 13.4312 19.7007 13.6944C19.921 13.9575 20.0392 14.2208 20.0551 14.4843C20.0711 14.7479 19.9454 15.5489 19.6779 16.8876C19.4097 18.2143 19.0615 19.7081 18.6332 21.369C18.4659 21.9803 18.2266 22.2953 17.9151 22.3142C17.7474 22.3244 17.5997 22.2672 17.4719 22.1427C17.3435 22.0063 17.2741 21.8542 17.2639 21.6865C17.2531 21.5068 17.2783 21.2288 17.3396 20.8524C17.4122 20.4633 17.5134 19.9522 17.6434 19.3192C17.7845 18.6735 17.891 18.1501 17.9629 17.749C18.0467 17.3472 18.1277 16.8974 18.2057 16.3998C18.283 15.8902 18.3425 15.4838 18.3842 15.1808C18.4372 14.865 18.4962 14.5488 18.5611 14.2323C18.6933 13.6352 18.8491 13.3312 19.0288 13.3203ZM26.2386 12.8831C26.6459 12.8584 27.043 13.0628 27.4299 13.4962C27.8161 13.9176 28.0194 14.296 28.0397 14.6313C28.0521 14.835 27.9624 14.9426 27.7708 14.9542C27.639 14.9622 27.4292 14.8727 27.1414 14.6858C26.8528 14.4869 26.5648 14.3962 26.2773 14.4136C25.9899 14.431 25.5449 14.6263 24.9423 14.9995C24.3518 15.3719 24.0678 15.7438 24.0903 16.1151C24.107 16.3906 24.6867 16.8303 25.8293 17.4343C26.2646 17.6724 26.6626 17.9909 27.0234 18.3897C27.3954 18.7759 27.596 19.2086 27.625 19.6877C27.6534 20.1548 27.3519 20.636 26.7207 21.1311C26.1008 21.6135 25.3536 21.8812 24.4792 21.9342C23.6168 21.9865 22.8375 21.8234 22.1413 21.4448C21.4571 21.0656 21.1038 20.6903 21.0812 20.3189C21.0718 20.1632 21.1005 20.0413 21.1672 19.9531C21.2453 19.8522 21.3442 19.7981 21.464 19.7908C21.5838 19.7835 21.7562 19.8512 21.9812 19.9939C22.6563 20.4218 23.3413 20.6147 24.036 20.5726C24.7427 20.5297 25.2471 20.421 25.549 20.2464C25.8503 20.0598 25.9929 19.8348 25.977 19.5712C25.9603 19.2958 25.7691 19.0188 25.4036 18.7404C25.0374 18.4501 24.6374 18.1978 24.2036 17.9837C23.7818 17.7688 23.3867 17.4982 23.0183 17.1719C22.6499 16.8456 22.4548 16.5028 22.433 16.1435C22.3945 15.5086 22.8516 14.8197 23.8044 14.0767C24.7684 13.3209 25.5798 12.9231 26.2386 12.8831ZM38.1065 9.6028C38.092 9.36324 38.174 9.12985 38.3526 8.90262C38.5312 8.6754 38.7163 8.55598 38.9079 8.54435C39.1115 8.53201 39.366 8.76303 39.6713 9.23742C39.9758 9.69984 40.1379 10.0927 40.1575 10.4162C40.1648 10.5359 40.1174 10.647 40.0154 10.7494C39.9134 10.8517 39.8025 10.9065 39.6827 10.9138C39.3953 10.9312 39.0613 10.7772 38.6809 10.4516C38.3125 10.1253 38.121 9.84236 38.1065 9.6028ZM38.1714 12.1596C38.399 12.1458 38.6229 12.2704 38.8432 12.5336C39.0636 12.7967 39.1817 13.0601 39.1977 13.3236C39.2137 13.5871 39.088 14.3882 38.8205 15.7268C38.5523 17.0535 38.2041 18.5473 37.7758 20.2083C37.6085 20.8195 37.3691 21.1346 37.0577 21.1535C36.89 21.1636 36.7423 21.1065 36.6145 20.982C36.486 20.8455 36.4167 20.6934 36.4065 20.5257C36.3956 20.3461 36.4208 20.068 36.4822 19.6916C36.5548 19.3025 36.656 18.7914 36.7859 18.1584C36.9271 17.5127 37.0336 16.9893 37.1055 16.5882C37.1893 16.1864 37.2702 15.7367 37.3483 15.239C37.4256 14.7294 37.4851 14.3231 37.5268 14.02C37.5798 13.7042 37.6388 13.3881 37.7037 13.0715C37.8358 12.4745 37.9917 12.1705 38.1714 12.1596ZM45.3812 11.7224C45.7885 11.6977 46.1855 11.902 46.5725 12.3354C46.9587 12.7568 47.162 13.1352 47.1823 13.4706C47.1947 13.6742 47.105 13.7818 46.9134 13.7934C46.7816 13.8014 46.5718 13.712 46.284 13.525C45.9954 13.3261 45.7074 13.2354 45.4199 13.2528C45.1324 13.2703 44.6874 13.4656 44.0849 13.8387C43.4944 14.2111 43.2104 14.583 43.2329 14.9543C43.2496 15.2298 43.8293 15.6695 44.9719 16.2735C45.4071 16.5116 45.8051 16.8301 46.1659 17.229C46.538 17.6152 46.7385 18.0478 46.7676 18.5269C46.7959 18.9941 46.4945 19.4752 45.8633 19.9703C45.2434 20.4527 44.4962 20.7204 43.6218 20.7735C42.7594 20.8258 41.9801 20.6626 41.2839 20.2841C40.5997 19.9048 40.2463 19.5295 40.2238 19.1582C40.2144 19.0025 40.243 18.8805 40.3098 18.7923C40.3879 18.6914 40.4868 18.6373 40.6065 18.63C40.7263 18.6228 40.8987 18.6905 41.1238 18.8331C41.7989 19.261 42.4839 19.4539 43.1786 19.4118C43.8853 19.3689 44.3896 19.2602 44.6916 19.0856C44.9929 18.899 45.1355 18.674 45.1195 18.4105C45.1028 18.135 44.9117 17.858 44.5462 17.5797C44.1799 17.2893 43.7799 17.037 43.3462 16.8229C42.9244 16.608 42.5293 16.3375 42.1609 16.0112C41.7925 15.6849 41.5973 15.342 41.5756 14.9827C41.5371 14.3479 41.9942 13.6589 42.947 12.9159C43.911 12.1602 44.7224 11.7623 45.3812 11.7224ZM62.4422 12.5993L62.5213 15.9847C62.5779 16.919 62.6609 17.5932 62.7702 18.0074C63.2525 17.4372 63.6576 16.7814 63.9853 16.0402C64.3243 15.2863 64.5648 14.5925 64.7067 13.9588C64.8605 13.3243 64.987 12.7335 65.0861 12.1865C65.1964 11.6268 65.3017 11.1817 65.4018 10.851C65.502 10.5203 65.6299 10.3503 65.7857 10.3408C66.0132 10.327 66.2227 10.4105 66.414 10.5912C66.6045 10.76 66.7071 10.9642 66.7216 11.2037C66.7586 11.8146 66.5442 12.8375 66.0782 14.2723C65.6895 15.5943 65.1505 16.8171 64.4612 17.9409C63.7713 19.0527 63.2167 19.6213 62.7974 19.6467C62.3782 19.6722 62.0466 19.4578 61.8027 19.0038C61.5707 18.549 61.4028 17.6635 61.299 16.3474C61.1944 15.0193 61.1427 13.8683 61.1437 12.8945C60.4538 15.1964 59.8263 16.9416 59.2612 18.13C58.696 19.3184 58.2278 19.9238 57.8565 19.9464C57.6888 19.9565 57.5044 19.8896 57.3033 19.7455C57.1142 19.6007 56.9581 19.4057 56.8351 19.1607C56.5331 18.5419 56.2321 17.3459 55.9323 15.5728C55.6437 13.787 55.4761 12.5108 55.4296 11.7442C55.3998 11.2531 55.5347 10.9985 55.8341 10.9803C56.0976 10.9643 56.3463 11.0995 56.58 11.3859C56.8258 11.6716 56.9757 11.963 57.0298 12.2603C57.0832 12.5456 57.1625 13.3583 57.2678 14.6984C57.3843 16.0257 57.57 17.2047 57.8249 18.2351C58.2644 17.3549 58.6909 16.2591 59.1042 14.9477C59.5296 13.6355 59.8758 12.6047 60.143 11.8551C60.4221 11.1049 60.6934 10.7217 60.9569 10.7058C61.3522 10.6818 61.6868 10.8478 61.9609 11.2039C62.2462 11.5473 62.4066 12.0124 62.4422 12.5993ZM69.0507 5.94113C69.0223 5.47399 69.1519 5.2317 69.4394 5.21427C69.667 5.20047 69.9174 5.36561 70.1908 5.7097C70.4761 6.05306 70.6289 6.39243 70.6492 6.72782C70.6964 7.50639 70.5794 8.84793 70.2982 10.7524C70.0282 12.6443 69.6384 14.5433 69.1289 16.4497C70.1952 14.209 71.1006 12.5852 71.845 11.5783C72.6007 10.5587 73.266 10.0315 73.8409 9.99662C74.1524 9.97774 74.528 10.2255 74.968 10.7398C75.4199 11.2534 75.6622 11.7797 75.6949 12.3187C75.7276 12.8577 75.6269 13.6753 75.3928 14.7715C74.8143 17.5235 74.1957 18.9195 73.5369 18.9595C73.2733 18.9754 73.1307 18.8038 73.1089 18.4444C73.0871 18.0851 73.1942 17.4715 73.4301 16.6036C73.9523 14.7085 74.1938 13.4376 74.1546 12.7908C74.1415 12.5752 74.0767 12.3988 73.9602 12.2616C73.8437 12.1244 73.7076 12.0605 73.5519 12.0699C73.3962 12.0794 73.2096 12.1748 72.9922 12.3563C72.7748 12.5378 72.5171 12.848 72.2191 13.2868C71.8445 13.8505 71.456 14.4812 71.0535 15.1788C70.6629 15.8758 70.4241 16.299 70.337 16.4485C70.2612 16.5854 70.1203 16.8404 69.9145 17.2135C69.7207 17.5859 69.5754 17.8652 69.4785 18.0514C69.3808 18.2257 69.2603 18.4193 69.117 18.6324C68.8654 19.0444 68.6678 19.2547 68.5241 19.2634C68.3803 19.2721 68.1807 19.152 67.9252 18.903C67.6689 18.6421 67.5353 18.4217 67.5244 18.2421C67.5128 18.0504 67.5572 17.6931 67.6578 17.17C68.1172 14.8339 68.399 13.2359 68.5032 12.3761C68.9372 9.22402 69.1197 7.07904 69.0507 5.94113ZM81.6051 9.52582C82.1441 9.49314 82.6579 9.73849 83.1464 10.2619C83.6343 10.7733 83.8916 11.2506 83.9185 11.6938C83.9447 12.125 83.8218 12.5772 83.55 13.0506C83.7046 13.2215 83.7859 13.3729 83.7939 13.5046C83.8142 13.84 83.7712 14.4197 83.6649 15.2436C83.5706 16.0668 83.5131 16.6053 83.4924 16.859C83.4837 17.112 83.4721 17.3171 83.4575 17.4743C83.4423 17.6195 83.4211 17.765 83.3939 17.9109C83.3641 18.2133 83.2654 18.3695 83.0977 18.3797C82.8821 18.3928 82.6912 18.218 82.5249 17.8554C82.3699 17.4801 82.2623 16.9937 82.202 16.3963C81.218 17.8144 80.2709 18.5511 79.3606 18.6063C78.8096 18.6397 78.2504 18.4392 77.6831 18.0048C77.127 17.5576 76.8337 17.0825 76.8032 16.5794C76.7596 15.8607 76.9694 14.9584 77.4325 13.8723C77.8949 12.7743 78.5202 11.7867 79.3086 10.9094C80.0969 10.032 80.8624 9.57085 81.6051 9.52582ZM82.6233 12.6379C82.5557 11.5239 82.3004 10.9804 81.8572 11.0073C81.39 11.0356 80.8654 11.404 80.2832 12.1126C79.7003 12.8091 79.2187 13.5897 78.8383 14.4543C78.4579 15.3189 78.2826 15.9968 78.3124 16.4879C78.3248 16.6915 78.4188 16.8541 78.5945 16.9757C78.7694 17.0853 78.9707 17.1332 79.1983 17.1194C79.7612 17.0853 80.3732 16.6695 81.0341 15.872C81.6943 15.0626 82.1291 14.1045 82.3385 12.9978C82.3636 12.8159 82.4589 12.702 82.6244 12.6559L82.6233 12.6379ZM87.6916 16.2978C87.7054 16.5254 87.8441 16.6312 88.1076 16.6152C88.5627 16.5876 89.1061 16.4285 89.7377 16.1377C90.3805 15.8342 90.7378 15.6803 90.8097 15.676C91.0253 15.6629 91.14 15.7701 91.1538 15.9977C91.1748 16.3451 90.8398 16.7681 90.1488 17.2669C89.4697 17.7649 88.8366 18.0317 88.2497 18.0673C87.6748 18.1022 87.1862 17.9755 86.784 17.6873C86.3811 17.3872 86.1695 17.0694 86.1492 16.734C86.1288 16.3986 86.1749 15.969 86.2874 15.4453C86.3992 14.9095 86.5611 14.2084 86.773 13.342C86.9962 12.4629 87.1686 11.7371 87.2902 11.1647C86.7352 11.3306 86.3619 11.4194 86.1702 11.431C85.9786 11.4426 85.7811 11.3584 85.5779 11.1784C85.3858 10.9857 85.2844 10.7995 85.2735 10.6198C85.2561 10.3323 86.0179 10.0096 87.5591 9.65167C87.7144 8.64442 87.7688 7.7575 87.7223 6.99091C87.7005 6.63157 87.8094 6.44464 88.049 6.43011C88.2526 6.41777 88.5121 6.53427 88.8276 6.77963C89.1423 7.01301 89.3094 7.2914 89.329 7.61481C89.3487 7.93821 89.2813 8.51334 89.1271 9.34019C89.8062 9.2389 90.3494 9.17591 90.7567 9.15121C91.4753 9.10763 91.8441 9.24156 91.863 9.55299C91.8739 9.73266 91.6853 9.89437 91.2973 10.0381C90.9213 10.1811 90.1181 10.4162 88.8876 10.7433C88.6934 11.7048 88.4418 12.808 88.1325 14.053C87.8226 15.2861 87.6756 16.0343 87.6916 16.2978ZM106.432 8.02033C106.624 8.00871 106.836 8.1401 107.07 8.41449C107.314 8.67619 107.446 8.98072 107.468 9.32808C107.482 9.56764 107.286 10.397 106.879 11.8163C106.472 13.2355 106.194 14.2021 106.045 14.7161C105.907 15.2173 105.714 15.8903 105.464 16.7349C105.226 17.5669 104.993 18.3805 104.765 19.1757C104.27 20.9249 103.423 21.8358 102.225 21.9084C101.543 21.9498 100.877 21.7798 100.229 21.3983C99.5813 21.0289 99.2441 20.6225 99.2172 20.1793C99.207 20.0116 99.2736 19.8213 99.417 19.6082C99.5484 19.3959 99.668 19.2864 99.7758 19.2799C99.8836 19.2733 100.065 19.3946 100.321 19.6436C101.063 20.392 101.68 20.7513 102.171 20.7215C102.543 20.699 102.858 20.3493 103.118 19.6723C103.378 19.0074 103.615 18.2536 103.828 17.4112C104.054 16.58 104.177 16.1217 104.196 16.0364C104.226 15.9504 104.256 15.8404 104.284 15.7065C104.324 15.5718 104.358 15.4495 104.388 15.3395C103.608 16.5529 102.805 17.1847 101.978 17.2348C101.475 17.2653 100.994 17.0601 100.534 16.6191C100.087 16.1774 99.8436 15.6391 99.8051 15.0043C99.7666 14.3694 99.8703 13.5036 100.116 12.4067C100.362 11.3098 100.671 10.3533 101.042 9.53735C101.414 8.72138 101.731 8.30541 101.995 8.28943C102.21 8.27636 102.414 8.36619 102.606 8.55892C102.809 8.73894 102.917 8.93077 102.93 9.1344C102.942 9.33802 102.812 9.77268 102.54 10.4384C101.69 12.4856 101.299 14.0601 101.365 15.1621C101.377 15.3538 101.447 15.5118 101.575 15.6363C101.702 15.7488 101.849 15.8 102.017 15.7899C102.448 15.7637 102.94 15.3492 103.492 14.5463C104.045 13.7434 104.54 12.7996 104.979 11.7151C105.345 10.8033 105.714 9.64483 106.085 8.23976C106.125 8.10509 106.241 8.03195 106.432 8.02033ZM113.441 10.661C113.416 10.2537 113.327 9.87443 113.173 9.52308C113.019 9.15975 112.811 8.90187 112.549 8.74943C111.737 9.02713 111.063 9.71117 110.528 10.8015C110.004 11.8792 109.77 12.8792 109.826 13.8015C109.882 14.7238 110.145 15.285 110.613 15.485C111.466 15.265 112.161 14.6337 112.699 13.5913C113.248 12.5361 113.495 11.5593 113.441 10.661ZM108.725 11.1092C109.088 10.1495 109.586 9.34988 110.221 8.7103C110.866 8.05803 111.543 7.71046 112.249 7.66761C112.968 7.62403 113.585 7.89315 114.102 8.47498C114.617 9.04482 114.901 9.76694 114.954 10.6413C115.007 11.5038 114.851 12.4028 114.487 13.3386C114.122 14.2624 113.586 15.0462 112.88 15.6901C112.185 16.3214 111.424 16.662 110.598 16.7122C109.987 16.7492 109.461 16.4986 109.019 15.9603C108.578 15.422 108.331 14.7217 108.279 13.8593C108.226 12.9849 108.375 12.0682 108.725 11.1092ZM122.362 7.55934C122.398 7.36479 122.438 7.23013 122.481 7.15535C122.525 7.08058 122.625 7.03847 122.78 7.02903C122.948 7.01886 123.155 7.16259 123.401 7.46022C123.66 7.75712 123.798 8.04931 123.815 8.33678C123.825 8.49249 123.617 9.43078 123.193 11.1516C122.768 12.8725 122.442 14.2387 122.215 15.2503C122.102 15.7621 121.913 16.026 121.65 16.042C121.494 16.0514 121.358 15.9935 121.242 15.8683C121.127 15.7431 121.058 15.5068 121.037 15.1594C121.016 14.8121 121.116 14.1749 121.336 13.2478C120.882 14.0929 120.378 14.7967 119.823 15.3593C119.268 15.9219 118.745 16.2181 118.254 16.2479C117.775 16.277 117.306 16.077 116.847 15.648C116.388 15.2189 116.144 14.7649 116.115 14.2857C116.046 13.1478 116.29 11.7085 116.845 9.96765C117.412 8.21412 117.917 7.32392 118.36 7.29704C118.576 7.28397 118.768 7.37453 118.936 7.56871C119.115 7.75019 119.212 7.9667 119.228 8.21824C119.234 8.32604 119.096 8.72513 118.813 9.41551C118.53 10.0939 118.254 10.8921 117.985 11.81C117.715 12.716 117.601 13.5044 117.641 14.1752C117.653 14.3668 117.723 14.5249 117.85 14.6494C117.977 14.7619 118.125 14.8131 118.293 14.8029C118.748 14.7753 119.262 14.3414 119.837 13.5011C120.423 12.66 120.941 11.6909 121.391 10.5936C121.842 9.49635 122.165 8.48492 122.362 7.55934ZM127.96 2.51321C128.006 3.26782 127.705 4.04949 127.057 4.85821C126.408 5.66693 125.863 6.08472 125.42 6.1116C125.096 6.13121 124.926 6.00926 124.91 5.74574C124.902 5.602 125.021 5.39039 125.269 5.11089C125.528 4.83067 125.785 4.50853 126.04 4.14446C126.294 3.78039 126.412 3.44863 126.394 3.14918C126.376 2.84973 126.309 2.63141 126.192 2.49421C126.075 2.35701 125.956 2.2621 125.832 2.20947C125.476 2.0868 125.291 1.91167 125.277 1.68409C125.263 1.45651 125.342 1.25941 125.512 1.0928C125.693 0.913489 125.91 0.816206 126.161 0.800953C126.629 0.772626 127.034 0.916349 127.378 1.23212C127.733 1.53519 127.927 1.96222 127.96 2.51321ZM130.973 8.73228L130.837 7.38803C130.803 6.82506 130.918 6.53559 131.181 6.51961C131.409 6.50581 131.633 6.64246 131.855 6.92956C132.088 7.20396 132.217 7.54479 132.242 7.95204C132.266 8.34731 132.272 8.64749 132.26 8.85257C133.207 7.20828 134.147 6.35781 135.081 6.30116C135.668 6.26557 135.97 6.39151 135.988 6.67898C135.996 6.82272 135.938 6.95847 135.814 7.08624C135.689 7.21401 135.488 7.36447 135.21 7.53761C134.592 7.8516 134.079 8.30951 133.671 8.91132C133.273 9.50044 132.959 10.1627 132.727 10.8981C132.495 11.6335 132.31 12.2518 132.172 12.7531C132.046 13.2536 131.95 13.6441 131.883 13.9247C131.816 14.2053 131.736 14.4806 131.644 14.7507C131.482 15.2414 131.275 15.4944 131.023 15.5097C130.819 15.522 130.645 15.4184 130.499 15.1988C130.365 14.9665 130.291 14.7426 130.278 14.5269C130.264 14.2994 130.339 13.85 130.503 13.1789C130.903 11.6399 131.059 10.1577 130.973 8.73228ZM143.06 8.79282C143.098 9.42765 142.782 9.96976 142.112 10.4191C141.453 10.8558 140.687 11.1007 139.812 11.1537C138.95 11.206 138.16 11.1577 137.441 11.0089C137.306 11.5461 137.25 12.0243 137.276 12.4436C137.301 12.8508 137.446 13.1606 137.711 13.3729C137.988 13.5846 138.42 13.6726 139.007 13.637C139.606 13.6007 140.211 13.4618 140.821 13.2204C141.443 12.9663 141.784 12.8374 141.844 12.8338C142.155 12.8149 142.318 12.9253 142.333 13.1648C142.352 13.4882 142.009 13.8637 141.301 14.2913C140.593 14.707 139.892 14.9358 139.197 14.978C138.263 15.0346 137.485 14.8052 136.865 14.2898C136.244 13.7625 135.908 13.0736 135.856 12.2231C135.804 11.3727 135.978 10.4725 136.377 9.5226C136.776 8.56072 137.315 7.74057 137.996 7.06215C138.676 6.38374 139.369 6.02311 140.076 5.98025C140.783 5.9374 141.444 6.23393 142.059 6.86983C142.687 7.50501 143.02 8.146 143.06 8.79282ZM140.252 7.3942C139.809 7.42107 139.362 7.68261 138.911 8.1788C138.459 8.66302 138.087 9.25667 137.793 9.95975C138.278 10.0385 138.826 10.0594 139.437 10.0223C140.048 9.98527 140.575 9.85713 141.019 9.63788C141.462 9.40665 141.673 9.12933 141.654 8.80593C141.634 8.48252 141.464 8.16221 141.145 7.84498C140.837 7.52703 140.539 7.37677 140.252 7.3942ZM27.4267 45.9398C27.4558 46.419 27.2792 46.9767 26.897 47.613C26.6179 48.3632 26.3345 49.4384 26.0467 50.8384C25.7582 52.2264 25.5059 53.2215 25.29 53.8236C24.861 55.0759 24.1254 55.7336 23.0834 55.7968C22.2329 55.8484 21.5001 55.6584 20.8848 55.2268C20.2823 54.8065 19.9672 54.3688 19.9396 53.9136C19.928 53.722 19.9763 53.5267 20.0844 53.3278C20.1806 53.1296 20.2886 53.0269 20.4084 53.0196C20.5401 53.0116 20.6893 53.0928 20.8559 53.263C21.0225 53.4332 21.1779 53.6161 21.322 53.8118C21.4788 54.0187 21.7004 54.2036 21.9868 54.3666C22.2851 54.5288 22.5661 54.6019 22.8296 54.5859C23.0931 54.57 23.2882 54.5161 23.4149 54.4242C23.5423 54.3444 23.6604 54.211 23.7693 54.024C23.8789 53.8491 23.9702 53.6692 24.0432 53.4845C24.1168 53.3117 24.1918 53.0607 24.268 52.7315C24.3569 52.4135 24.4244 52.1389 24.4705 51.9077C24.5166 51.6765 24.5812 51.354 24.6643 50.9402C24.7467 50.5144 24.8162 50.1736 24.8728 49.9177C23.9806 50.6691 23.2411 51.0626 22.6542 51.0982C22.0673 51.1338 21.544 50.9311 21.0845 50.4901C20.6242 50.0371 20.3752 49.4992 20.3374 48.8763C20.299 48.2415 20.4817 47.3889 20.8856 46.3184C21.3016 45.2473 21.8857 44.2742 22.6381 43.399C23.3905 42.5239 24.15 42.0631 24.9166 42.0166C25.4077 41.9868 25.8322 42.1474 26.1901 42.4984C26.7782 43.0758 27.1063 43.9275 27.1746 45.0535C27.1833 45.1972 27.1835 45.2994 27.1752 45.36C27.3312 45.5549 27.4151 45.7482 27.4267 45.9398ZM21.8037 48.9677C21.816 49.1714 21.8921 49.3351 22.0318 49.4588C22.1708 49.5706 22.3422 49.6203 22.5458 49.608C23.1447 49.5717 23.83 49.1755 24.6016 48.4194C25.3725 47.6513 25.897 46.784 26.175 45.8174C26.1176 45.6646 26.0612 45.4276 26.0057 45.1063C25.9501 44.7851 25.8986 44.5298 25.851 44.3403C25.8034 44.1508 25.714 43.9639 25.5826 43.7795C25.4504 43.5831 25.2886 43.4908 25.0969 43.5024C24.6298 43.5307 24.1231 43.8981 23.5768 44.6044C23.0306 45.3108 22.5909 46.0888 22.2577 46.9385C21.9245 47.7883 21.7732 48.4647 21.8037 48.9677ZM35.9425 44.3415C35.981 44.9763 35.6653 45.5184 34.9952 45.9678C34.3365 46.4045 33.5699 46.6493 32.6955 46.7023C31.8331 46.7546 31.0427 46.7064 30.3244 46.5576C30.1886 47.0948 30.1335 47.573 30.1589 47.9922C30.1836 48.3995 30.3286 48.7093 30.594 48.9216C30.8713 49.1332 31.3034 49.2212 31.8903 49.1856C32.4892 49.1493 33.0939 49.0105 33.7044 48.7691C34.3262 48.515 34.667 48.3861 34.7269 48.3825C35.0383 48.3636 35.2013 48.4739 35.2158 48.7135C35.2354 49.0369 34.8915 49.4124 34.1841 49.84C33.476 50.2556 32.7746 50.4845 32.0798 50.5266C31.1455 50.5833 30.3682 50.3539 29.7479 49.8385C29.1268 49.3111 28.7905 48.6222 28.739 47.7718C28.6874 46.9213 28.8612 46.0212 29.2605 45.0713C29.659 44.1094 30.1983 43.2892 30.8785 42.6108C31.5587 41.9324 32.2521 41.5718 32.9588 41.5289C33.6655 41.4861 34.3267 41.7826 34.9423 42.4185C35.5699 43.0537 35.9033 43.6947 35.9425 44.3415ZM33.1347 42.9429C32.6916 42.9697 32.2446 43.2313 31.7938 43.7275C31.3423 44.2117 30.9695 44.8053 30.6755 45.5084C31.1612 45.5872 31.7094 45.608 32.3203 45.571C32.9312 45.5339 33.4584 45.4058 33.902 45.1865C34.3448 44.9553 34.5564 44.678 34.5368 44.3546C34.5172 44.0312 34.3475 43.7109 34.0277 43.3936C33.7199 43.0757 33.4222 42.9254 33.1347 42.9429ZM39.1253 48.2961C39.1391 48.5237 39.2777 48.6295 39.5412 48.6135C39.9964 48.5859 40.5398 48.4267 41.1713 48.1359C41.8141 47.8325 42.1715 47.6786 42.2433 47.6742C42.4589 47.6611 42.5736 47.7684 42.5874 47.996C42.6085 48.3433 42.2735 48.7664 41.5824 49.2651C40.9033 49.7632 40.2703 50.03 39.6834 50.0655C39.1084 50.1004 38.6199 49.9737 38.2177 49.6856C37.8148 49.3854 37.6032 49.0676 37.5828 48.7322C37.5625 48.3969 37.6086 47.9673 37.7211 47.4435C37.8329 46.9078 37.9947 46.2067 38.2067 45.3403C38.4299 44.4611 38.6023 43.7354 38.7238 43.163C38.1689 43.3289 37.7955 43.4176 37.6039 43.4292C37.4122 43.4409 37.2148 43.3567 37.0115 43.1766C36.8195 42.9839 36.718 42.7977 36.7071 42.618C36.6897 42.3306 37.4516 42.0079 38.9927 41.6499C39.1481 40.6427 39.2025 39.7558 39.156 38.9892C39.1342 38.6298 39.2431 38.4429 39.4826 38.4284C39.6863 38.416 39.9458 38.5325 40.2612 38.7779C40.5759 39.0113 40.7431 39.2896 40.7627 39.6131C40.7823 39.9365 40.715 40.5116 40.5608 41.3384C41.2399 41.2371 41.7831 41.1742 42.1903 41.1495C42.909 41.1059 43.2778 41.2398 43.2967 41.5512C43.3076 41.7309 43.119 41.8926 42.731 42.0364C42.355 42.1794 41.5517 42.4144 40.3212 42.7415C40.1271 43.703 39.8754 44.8063 39.5662 46.0513C39.2563 47.2843 39.1093 48.0326 39.1253 48.2961ZM46.0734 47.8748C46.0872 48.1023 46.2259 48.2081 46.4894 48.1922C46.9446 48.1646 47.4879 48.0054 48.1195 47.7146C48.7623 47.4112 49.1196 47.2572 49.1915 47.2529C49.4071 47.2398 49.5218 47.3471 49.5356 47.5747C49.5567 47.922 49.2217 48.3451 48.5306 48.8438C47.8515 49.3418 47.2185 49.6086 46.6316 49.6442C46.0566 49.6791 45.568 49.5524 45.1659 49.2642C44.763 48.9641 44.5513 48.6463 44.531 48.3109C44.5107 47.9755 44.5567 47.546 44.6693 47.0222C44.781 46.4864 44.9429 45.7854 45.1548 44.9189C45.378 44.0398 45.5504 43.3141 45.672 42.7416C45.117 42.9075 44.7437 42.9963 44.5521 43.0079C44.3604 43.0195 44.163 42.9353 43.9597 42.7553C43.7677 42.5626 43.6662 42.3764 43.6553 42.1967C43.6379 41.9092 44.3998 41.5865 45.9409 41.2286C46.0962 40.2213 46.1507 39.3344 46.1042 38.5678C46.0824 38.2085 46.1913 38.0216 46.4308 38.007C46.6344 37.9947 46.894 38.1112 47.2094 38.3565C47.5241 38.5899 47.6913 38.8683 47.7109 39.1917C47.7305 39.5151 47.6632 40.0903 47.5089 40.9171C48.1881 40.8158 48.7312 40.7528 49.1385 40.7281C49.8572 40.6846 50.2259 40.8185 50.2448 41.1299C50.2557 41.3096 50.0672 41.4713 49.6792 41.615C49.3031 41.7581 48.4999 41.9931 47.2694 42.3202C47.0753 43.2817 46.8236 44.385 46.5144 45.63C46.2044 46.863 46.0575 47.6112 46.0734 47.8748ZM52.7229 37.7698C52.7084 37.5302 52.7904 37.2968 52.969 37.0696C53.1476 36.8424 53.3327 36.7229 53.5243 36.7113C53.728 36.699 53.9824 36.93 54.2877 37.4044C54.5922 37.8668 54.7543 38.2597 54.7739 38.5831C54.7812 38.7029 54.7338 38.814 54.6318 38.9163C54.5298 39.0187 54.419 39.0735 54.2992 39.0808C54.0117 39.0982 53.6778 38.9441 53.2974 38.6185C52.9289 38.2922 52.7375 38.0093 52.7229 37.7698ZM52.7878 40.3265C53.0154 40.3127 53.2393 40.4374 53.4597 40.7005C53.68 40.9637 53.7982 41.227 53.8141 41.4905C53.8301 41.754 53.7044 42.5551 53.4369 43.8938C53.1687 45.2204 52.8205 46.7142 52.3922 48.3752C52.2249 48.9865 51.9856 49.3015 51.6741 49.3204C51.5064 49.3306 51.3587 49.2734 51.2309 49.1489C51.1025 49.0125 51.0331 48.8604 51.023 48.6927C51.0121 48.513 51.0373 48.235 51.0986 47.8586C51.1712 47.4695 51.2724 46.9584 51.4024 46.3254C51.5435 45.6796 51.65 45.1562 51.7219 44.7552C51.8057 44.3533 51.8867 43.9036 51.9647 43.406C52.042 42.8964 52.1015 42.49 52.1432 42.1869C52.1962 41.8712 52.2552 41.555 52.3201 41.2385C52.4523 40.6414 52.6081 40.3374 52.7878 40.3265ZM56.9706 45.8795C58.0021 43.8574 58.8485 42.3514 59.5098 41.3615C60.1824 40.359 60.7463 39.8439 61.2014 39.8163C61.6686 39.788 62.1206 40.007 62.5577 40.4734C63.0067 40.9391 63.2479 41.4475 63.2813 41.9984C63.3336 42.8609 63.1999 43.9269 62.8801 45.1966C62.3009 47.5399 61.7238 48.7291 61.1489 48.7639C60.8854 48.7799 60.7427 48.6082 60.7209 48.2489C60.7057 47.9973 60.8006 47.4806 61.0056 46.6988C61.2219 45.9043 61.4154 45.1291 61.5859 44.3734C61.7678 43.605 61.8474 43.0351 61.8249 42.6638C61.8017 42.2805 61.7247 42.0027 61.594 41.8303C61.4753 41.6571 61.3561 41.5742 61.2363 41.5815C61.1285 41.588 61.0169 41.6308 60.9015 41.71C60.7861 41.7891 60.6556 41.9172 60.51 42.0944C60.3765 42.2708 60.2489 42.4468 60.1273 42.6225C60.005 42.7862 59.8511 43.0239 59.6656 43.3357C59.4921 43.6468 59.346 43.9141 59.2274 44.1377C59.1079 44.3494 58.9345 44.6604 58.7069 45.071C58.4793 45.4815 58.3058 45.7925 58.1864 46.0042C58.067 46.2158 57.91 46.5018 57.7155 46.8622C57.521 47.2227 57.3636 47.5027 57.2435 47.7024C57.1353 47.9013 57.0103 48.1192 56.8684 48.3563C56.5958 48.8176 56.3697 49.0537 56.19 49.0646C56.0223 49.0748 55.8167 48.955 55.5731 48.7053C55.3288 48.4436 55.2005 48.2109 55.1882 48.0073C55.1845 47.9474 55.2167 47.7832 55.2845 47.5146C55.47 46.8061 55.6696 45.9344 55.8833 44.8995C56.0964 43.8527 56.1753 42.6758 56.1201 41.3687C56.103 40.4922 56.2022 40.0473 56.4178 40.0343C56.6814 40.0183 56.9532 40.1401 57.2334 40.3996C57.5137 40.6591 57.6639 40.9565 57.6843 41.2919C57.7039 41.6153 57.6406 42.2563 57.4943 43.2149C57.3593 44.1608 57.1848 45.049 56.9706 45.8795ZM71.8003 43.2491C71.8293 43.7282 71.6528 44.2859 71.2706 44.9222C70.9915 45.6725 70.708 46.7476 70.4202 48.1476C70.1317 49.5356 69.8795 50.5307 69.6635 51.1329C69.2346 52.3852 68.499 53.0429 67.4569 53.1061C66.6065 53.1576 65.8736 52.9676 65.2584 52.5361C64.6559 52.1158 64.3408 51.6781 64.3132 51.2229C64.3016 51.0312 64.3498 50.836 64.458 50.6371C64.5542 50.4389 64.6622 50.3361 64.7819 50.3289C64.9137 50.3209 65.0629 50.402 65.2295 50.5722C65.3961 50.7425 65.5514 50.9254 65.6956 51.121C65.8524 51.3279 66.074 51.5129 66.3604 51.6758C66.6587 51.8381 66.9397 51.9112 67.2032 51.8952C67.4667 51.8792 67.6618 51.8253 67.7885 51.7335C67.9159 51.6536 68.034 51.5202 68.1429 51.3333C68.2525 51.1583 68.3438 50.9785 68.4167 50.7937C68.4904 50.621 68.5654 50.37 68.6416 50.0407C68.7305 49.7228 68.798 49.4482 68.8441 49.217C68.8902 48.9858 68.9548 48.6633 69.0379 48.2495C69.1203 47.8237 69.1898 47.4829 69.2464 47.227C68.3542 47.9784 67.6147 48.3718 67.0277 48.4074C66.4408 48.443 65.9176 48.2403 65.4581 47.7993C64.9978 47.3464 64.7488 46.8084 64.711 46.1856C64.6725 45.5507 64.8553 44.6981 65.2592 43.6277C65.6751 42.5566 66.2593 41.5834 67.0117 40.7083C67.7641 39.8331 68.5236 39.3723 69.2902 39.3258C69.7813 39.2961 70.2058 39.4567 70.5637 39.8076C71.1517 40.3851 71.4799 41.2368 71.5482 42.3627C71.5569 42.5065 71.5571 42.6087 71.5487 42.6693C71.7048 42.8642 71.7887 43.0575 71.8003 43.2491ZM66.1772 46.277C66.1896 46.4806 66.2656 46.6443 66.4054 46.7681C66.5444 46.8799 66.7157 46.9296 66.9194 46.9173C67.5183 46.8809 68.2035 46.4847 68.9752 45.7286C69.7461 44.9606 70.2706 44.0932 70.5486 43.1266C70.4912 42.9738 70.4348 42.7368 70.3792 42.4156C70.3237 42.0944 70.2721 41.839 70.2246 41.6495C70.177 41.4601 70.0875 41.2731 69.9561 41.0888C69.824 40.8924 69.6621 40.8 69.4705 40.8117C69.0033 40.84 68.4966 41.2073 67.9504 41.9137C67.4041 42.62 66.9644 43.3981 66.6313 44.2478C66.2981 45.0975 66.1467 45.7739 66.1772 46.277ZM82.014 47.5348C81.8583 47.5442 81.6837 47.4406 81.4902 47.2239C81.2967 47.0072 81.1956 46.827 81.1869 46.6833C81.1782 46.5395 81.221 46.2544 81.3154 45.8279C81.7836 43.6356 82.0975 42.0717 82.2571 41.1363C81.7494 41.2873 81.3996 41.3686 81.208 41.3803C81.0163 41.3919 80.8196 41.3197 80.6178 41.1636C80.416 41.0075 80.3089 40.8277 80.2965 40.624C80.2842 40.4204 80.5428 40.2244 81.0724 40.036C81.7569 39.8262 82.2295 39.6893 82.4901 39.6254C82.575 39.0432 82.638 38.5946 82.679 38.2795C82.8662 36.6091 83.1833 35.3937 83.6301 34.6333C84.0768 33.8728 84.7195 33.4672 85.5579 33.4164C86.1568 33.3801 86.6625 33.5898 87.0748 34.0457C87.4864 34.4896 87.7119 35.035 87.7511 35.6818C87.7896 36.3166 87.6411 36.6442 87.3057 36.6645C87.0183 36.682 86.7651 36.3727 86.5462 35.7368C86.4718 35.5009 86.3565 35.2855 86.2004 35.0905C86.0444 34.8956 85.8645 34.8044 85.6609 34.8167C85.4573 34.8291 85.2774 34.9361 85.1213 35.1379C84.9645 35.3278 84.8308 35.6004 84.7201 35.9557C84.4316 36.947 84.2458 37.8479 84.1627 38.6584L84.0571 39.296C84.4966 39.2092 84.932 39.1528 85.3632 39.1266C85.8064 39.0997 86.1267 39.1284 86.3242 39.2126C86.5336 39.2961 86.6427 39.4097 86.6514 39.5534C86.6652 39.781 86.4781 39.9667 86.0901 40.1104C85.7021 40.2542 84.9389 40.4567 83.8007 40.7181C83.1594 44.2193 82.703 46.3088 82.4316 46.9865C82.2849 47.344 82.1457 47.5268 82.014 47.5348ZM92.5442 40.9814C92.5195 40.5741 92.4304 40.1948 92.2768 39.8435C92.1226 39.4801 91.9146 39.2223 91.6529 39.0698C90.8402 39.3475 90.1664 40.0316 89.6314 41.1219C89.1076 42.1996 88.8737 43.1996 88.9297 44.1219C88.9856 45.0442 89.248 45.6054 89.717 45.8053C90.5693 45.5854 91.2643 44.9541 91.8022 43.9117C92.3514 42.8565 92.5987 41.8797 92.5442 40.9814ZM87.8287 41.4296C88.1913 40.4699 88.6898 39.6703 89.3242 39.0307C89.9699 38.3784 90.6461 38.0309 91.3528 37.988C92.0715 37.9444 92.6889 38.2135 93.2051 38.7954C93.7205 39.3652 94.0048 40.0873 94.0578 40.9617C94.1101 41.8241 93.9542 42.7232 93.5902 43.659C93.2254 44.5827 92.6899 45.3666 91.9836 46.0105C91.2885 46.6418 90.5277 46.9824 89.7013 47.0325C89.0904 47.0696 88.5642 46.819 88.1229 46.2807C87.6815 45.7424 87.4346 45.0421 87.3823 44.1797C87.3293 43.3053 87.4781 42.3886 87.8287 41.4296ZM96.2852 39.8889L96.1496 38.5447C96.1154 37.9817 96.2301 37.6922 96.4937 37.6763C96.7212 37.6625 96.9459 37.7991 97.1677 38.0862C97.4007 38.3606 97.5296 38.7014 97.5543 39.1087C97.5783 39.504 97.5844 39.8041 97.5728 40.0092C98.519 38.3649 99.4593 37.5145 100.394 37.4578C100.981 37.4222 101.283 37.5482 101.3 37.8356C101.309 37.9794 101.251 38.1151 101.126 38.2429C101.002 38.3707 100.801 38.5211 100.523 38.6943C99.9045 39.0083 99.3913 39.4662 98.983 40.068C98.5859 40.6571 98.2714 41.3193 98.0395 42.0547C97.8076 42.7901 97.6227 43.4084 97.4848 43.9097C97.3588 44.4103 97.2623 44.8008 97.1951 45.0814C97.128 45.362 97.0485 45.6373 96.9567 45.9073C96.7941 46.3981 96.587 46.6511 96.3355 46.6663C96.1319 46.6787 95.9573 46.5751 95.8117 46.3555C95.6774 46.1232 95.6037 45.8992 95.5907 45.6836C95.5769 45.456 95.6518 45.0067 95.8155 44.3355C96.2151 42.7965 96.3716 41.3143 96.2852 39.8889ZM115.418 33.5172C115.766 33.4961 116.058 33.6527 116.294 33.987C116.53 34.3093 116.658 34.6382 116.679 34.9736C116.69 35.1652 116.612 35.2661 116.445 35.2763C116.373 35.2807 116.245 35.2643 116.063 35.2273C115.88 35.1783 115.704 35.1589 115.536 35.1691C115.369 35.1792 115.107 35.2192 114.75 35.2889C114.364 36.8511 114.049 38.1927 113.804 39.3135C114.679 39.8616 115.371 40.3786 115.882 40.8646C116.392 41.3506 116.664 41.8751 116.699 42.4381C116.763 43.2997 116.339 44.0468 115.428 44.6791C114.528 45.3107 113.494 45.692 112.323 45.8231C112.056 46.765 111.814 47.2425 111.599 47.2556C111.479 47.2628 111.38 47.2147 111.301 47.1113C111.157 46.9037 111.142 46.4717 111.259 45.8155C110.507 45.7048 109.863 45.3952 109.327 44.8867C108.791 44.3782 108.51 43.9024 108.483 43.4592C108.456 43.016 108.569 42.7868 108.82 42.7715C108.952 42.7635 109.152 42.8837 109.419 43.1319C109.687 43.3802 110.003 43.6375 110.368 43.9039C110.744 44.1576 111.13 44.2905 111.528 44.3024C111.6 43.9133 111.898 42.5669 112.419 40.2631C111.595 39.76 110.955 39.312 110.498 38.9189C110.041 38.5138 109.801 38.1256 109.778 37.7543C109.755 37.371 109.781 37.0088 109.857 36.6676C109.943 36.3137 110.054 36.0605 110.189 35.9081C110.898 35.1077 112.119 34.4206 113.851 33.8466C114.046 33.0895 114.223 32.5497 114.384 32.2274C114.544 31.8931 114.738 31.7251 114.967 31.7232C115.206 31.7087 115.339 31.9111 115.364 32.3303C115.382 32.6178 115.322 33.0181 115.185 33.5314L115.418 33.5172ZM112.727 44.1576C113.44 44.0182 114.016 43.8029 114.455 43.5118C114.906 43.208 115.119 42.8584 115.095 42.4632C115.071 42.0679 114.522 41.5361 113.448 40.868C113.166 42.1714 112.926 43.2679 112.727 44.1576ZM111.268 37.3394C111.285 37.6269 111.781 38.0717 112.755 38.6738C112.831 38.3326 113.048 37.3457 113.405 35.7131C112.784 35.9671 112.266 36.245 111.851 36.5467C111.449 36.8476 111.254 37.1118 111.268 37.3394ZM125.028 32.2492C126.777 32.1432 127.663 32.2758 127.685 32.6471C127.701 32.9106 126.689 33.2666 124.648 33.7149C123.747 33.9138 123.178 34.0505 122.942 34.1249C122.717 34.1866 122.461 34.5208 122.173 35.1273C121.897 35.7211 121.766 36.1498 121.782 36.4133C121.798 36.6648 121.94 36.9267 122.209 37.1989C122.477 37.4592 122.799 37.7161 123.175 37.9699C123.562 38.2109 123.95 38.4638 124.339 38.7288C125.243 39.3592 125.715 39.9979 125.754 40.6447C125.815 41.6508 125.392 42.6142 124.486 43.5347C123.58 44.4552 122.6 44.9474 121.546 45.0114C120.72 45.0615 119.96 44.825 119.267 44.302C118.574 43.779 118.211 43.242 118.178 42.691C118.157 42.3436 118.242 42.1641 118.434 42.1525C118.506 42.1482 118.688 42.2754 118.98 42.5342C119.844 43.2993 120.575 43.6637 121.174 43.6274C121.785 43.5903 122.427 43.2689 123.099 42.6631C123.784 42.0565 124.109 41.4718 124.075 40.9088C124.043 40.3937 123.566 39.8577 122.643 39.3005C122.268 39.0708 121.887 38.8354 121.5 38.5944C121.124 38.3407 120.793 38.0362 120.507 37.6808C120.233 37.3248 120.081 36.9072 120.052 36.4281C120.022 35.937 120.256 35.2315 120.753 34.3117C121.25 33.38 121.675 32.8613 122.029 32.7556C122.759 32.495 123.759 32.3262 125.028 32.2492Z" fill="#F9B939"/>
</svg>
