<svg width="181" height="84" viewBox="0 0 181 84" fill="none" xmlns="http://www.w3.org/2000/svg">
<path d="M66.6576 38.9134C56.1264 28.3822 40.3136 30.4696 29.2731 41.5101L23.6688 47.1144" stroke="#F2994A" stroke-linecap="round"/>
<path d="M21.9902 32.043V48.788H38.7353" stroke="#F2994A" stroke-linecap="round"/>
<path d="M72.8685 40.6225C72.8464 40.8494 72.9667 40.9757 73.2294 41.0013C73.6833 41.0456 74.2449 40.9737 74.9143 40.7858C75.5968 40.5871 75.9739 40.4913 76.0455 40.4982C76.2605 40.5192 76.3569 40.6432 76.3348 40.8701C76.301 41.2164 75.9037 41.5816 75.1429 41.9656C74.394 42.3507 73.7269 42.5147 73.1417 42.4577C72.5684 42.4018 72.1058 42.1999 71.7539 41.8521C71.4031 41.4924 71.2441 41.1453 71.2767 40.8109C71.3093 40.4765 71.4223 40.0595 71.6157 39.5599C71.8103 39.0484 72.0803 38.3814 72.4257 37.5591C72.7842 36.7259 73.0685 36.0363 73.2785 35.4901C72.7044 35.5667 72.3217 35.5957 72.1307 35.5771C71.9396 35.5585 71.7578 35.4443 71.5853 35.2345C71.426 35.014 71.355 34.8142 71.3725 34.6351C71.4004 34.3484 72.2035 34.1494 73.7818 34.0381C74.0934 33.0677 74.2865 32.2004 74.3611 31.436C74.396 31.0777 74.5329 30.9102 74.7718 30.9335C74.9748 30.9533 75.2128 31.1091 75.4858 31.401C75.7599 31.6809 75.8812 31.9821 75.8498 32.3046C75.8184 32.627 75.6615 33.1845 75.3793 33.9768C76.0659 33.9835 76.6122 34.0066 77.0183 34.0462C77.7349 34.1161 78.0781 34.3063 78.0478 34.6168C78.0303 34.7959 77.8187 34.926 77.4129 35.007C77.0191 35.0892 76.1889 35.1951 74.9223 35.3248C74.5795 36.2439 74.1576 37.2939 73.6566 38.4749C73.1568 39.6439 72.8941 40.3598 72.8685 40.6225ZM81.0168 29.8967C81.0622 29.4309 81.2283 29.2119 81.5149 29.2399C81.7418 29.262 81.9632 29.4645 82.1791 29.8472C82.4069 30.2311 82.5045 30.5903 82.4719 30.9247C82.3962 31.701 82.0699 33.0075 81.4929 34.8442C80.929 36.6701 80.2457 38.4844 79.443 40.287C80.8481 38.2417 81.9974 36.7803 82.8908 35.9029C83.7972 35.0147 84.5371 34.5985 85.1104 34.6544C85.4209 34.6847 85.753 34.9883 86.1067 35.5654C86.4723 36.1436 86.6289 36.7014 86.5765 37.2389C86.5241 37.7763 86.2962 38.5679 85.8928 39.6137C84.8891 42.2407 84.0588 43.5222 83.4019 43.4581C83.1392 43.4325 83.0253 43.2406 83.0602 42.8823C83.0952 42.524 83.2973 41.9348 83.6666 41.1148C84.4801 39.3253 84.9183 38.1081 84.9812 37.4631C85.0022 37.2481 84.9659 37.0637 84.8724 36.9099C84.7789 36.7561 84.6545 36.6717 84.4992 36.6565C84.344 36.6414 84.1447 36.7064 83.9015 36.8514C83.6583 36.9965 83.355 37.2623 82.9918 37.6489C82.5333 38.1468 82.0505 38.7086 81.5434 39.3343C81.0482 39.9612 80.7459 40.3417 80.6363 40.4757C80.5399 40.5989 80.3608 40.8286 80.0989 41.1648C79.849 41.5021 79.6616 41.7551 79.5366 41.9238C79.4128 42.0805 79.2634 42.2528 79.0883 42.4407C78.7752 42.8081 78.547 42.9847 78.4037 42.9708C78.2603 42.9568 78.0821 42.8068 77.8688 42.5207C77.6567 42.2228 77.5594 41.9842 77.5769 41.805C77.5955 41.6139 77.6956 41.268 77.877 40.7673C78.6978 38.5324 79.2271 36.9985 79.4651 36.1657C80.3889 33.1209 80.9062 31.0313 81.0168 29.8967ZM90.6279 32.6243C90.6512 32.3854 90.7688 32.1678 90.9809 31.9714C91.1929 31.7751 91.3945 31.6862 91.5856 31.7049C91.7886 31.7247 92.0036 31.9928 92.2306 32.5093C92.4587 33.0138 92.557 33.4273 92.5256 33.7498C92.5139 33.8692 92.4497 33.9714 92.3329 34.0565C92.2161 34.1416 92.098 34.1783 91.9786 34.1666C91.6919 34.1387 91.3863 33.9341 91.0618 33.5528C90.7492 33.1726 90.6046 32.8631 90.6279 32.6243ZM90.2902 35.1595C90.5172 35.1816 90.7187 35.3399 90.895 35.6344C91.0712 35.9289 91.1466 36.2075 91.1209 36.4703C91.0953 36.733 90.8453 37.5044 90.3708 38.7844C89.8975 40.0525 89.3189 41.473 88.635 43.0461C88.3738 43.6234 88.0879 43.897 87.7773 43.8667C87.6101 43.8504 87.4732 43.7707 87.3666 43.6277C87.2611 43.4727 87.2166 43.3117 87.2329 43.1445C87.2503 42.9653 87.3189 42.6947 87.4386 42.3326C87.5714 41.9597 87.7517 41.4709 87.9795 40.8662C88.2204 40.2506 88.4078 39.7505 88.5418 39.3656C88.6877 38.982 88.8383 38.5506 88.9935 38.0714C89.1499 37.5802 89.2725 37.1883 89.3614 36.8955C89.4633 36.592 89.5712 36.289 89.6851 35.9866C89.9094 35.4177 90.1111 35.142 90.2902 35.1595ZM97.4792 35.8605C97.8853 35.9001 98.2453 36.1642 98.5594 36.653C98.8746 37.1299 99.0159 37.5355 98.9833 37.8699C98.9635 38.0729 98.858 38.1652 98.6669 38.1465C98.5356 38.1337 98.3424 38.0124 98.0875 37.7826C97.8338 37.5408 97.5636 37.4059 97.277 37.378C96.9903 37.35 96.5202 37.473 95.8665 37.7469C95.2248 38.0219 94.8859 38.3445 94.8498 38.7148C94.823 38.9894 95.3264 39.5148 96.36 40.2908C96.7524 40.5943 97.0954 40.9713 97.389 41.422C97.6958 41.8618 97.8259 42.3206 97.7793 42.7983C97.7339 43.2641 97.3606 43.6919 96.6595 44.0817C95.9714 44.4607 95.1915 44.6077 94.3196 44.5227C93.4597 44.4389 92.7157 44.1553 92.0876 43.6721C91.4715 43.19 91.1815 42.7639 91.2176 42.3936C91.2327 42.2384 91.2802 42.1224 91.36 42.0458C91.453 41.9584 91.5591 41.9205 91.6786 41.9322C91.798 41.9438 91.9576 42.0378 92.1575 42.214C92.757 42.7427 93.4031 43.0408 94.0958 43.1083C94.8005 43.177 95.3157 43.1489 95.6413 43.0239C95.9681 42.887 96.1444 42.6871 96.17 42.4244C96.1968 42.1497 96.0516 41.8462 95.7343 41.5138C95.4182 41.1695 95.0628 40.8575 94.6681 40.5779C94.2853 40.2995 93.9376 39.9702 93.6251 39.59C93.3125 39.2099 93.1736 38.8407 93.2086 38.4824C93.2703 37.8494 93.83 37.2408 94.8877 36.6567C95.9585 36.0618 96.8223 35.7964 97.4792 35.8605ZM115.331 32.5372C115.522 32.5559 115.737 32.7577 115.977 33.1428C116.23 33.5171 116.341 33.8595 116.311 34.1701C116.281 34.4806 116.045 35.3498 115.604 36.7778C115.165 38.1938 114.672 39.659 114.127 41.1732C112.927 44.5768 112.19 46.2652 111.915 46.2384C111.748 46.2221 111.572 46.1025 111.389 45.8797C111.219 45.6461 111.142 45.4516 111.157 45.2964C111.172 45.1411 111.244 44.8347 111.373 44.377C110.086 45.4572 109.007 45.9548 108.135 45.8698C107.609 45.8186 107.155 45.5331 106.771 45.0135C106.4 44.495 106.239 43.9789 106.289 43.4654C106.362 42.7249 106.644 41.8663 107.137 40.8895C107.644 39.902 108.314 39.0269 109.148 38.2642C109.982 37.5015 110.823 37.1616 111.671 37.2442C112.519 37.3269 113.06 37.8922 113.296 38.94C114.152 36.4674 114.681 34.4995 114.884 33.0362C114.919 32.6779 115.068 32.5116 115.331 32.5372ZM112.502 41.1414C112.565 40.4964 112.505 39.9419 112.321 39.4779C112.149 39.015 111.908 38.7685 111.597 38.7382C111.084 38.6881 110.527 38.9534 109.928 39.5339C109.329 40.1145 108.828 40.8012 108.425 41.5938C108.035 42.3757 107.811 43.0652 107.753 43.6624C107.732 43.8773 107.793 44.0581 107.935 44.2046C108.078 44.3511 108.257 44.4349 108.472 44.4558C108.937 44.5012 109.597 44.228 110.45 43.636C111.316 43.0452 111.972 42.3134 112.419 41.4407L112.494 41.2309L112.502 41.1414ZM122.972 41.3484C122.91 41.9814 122.513 42.4672 121.781 42.8057C121.062 43.1334 120.266 43.2548 119.394 43.1698C118.534 43.0859 117.761 42.9141 117.075 42.6543C116.857 43.1635 116.727 43.6271 116.687 44.0451C116.647 44.4512 116.742 44.7799 116.97 45.0313C117.211 45.2839 117.624 45.4387 118.209 45.4957C118.806 45.554 119.425 45.5118 120.066 45.3694C120.72 45.2161 121.077 45.1424 121.137 45.1482C121.447 45.1785 121.591 45.3131 121.567 45.5519C121.536 45.8744 121.137 46.1912 120.372 46.5024C119.607 46.8016 118.878 46.9174 118.186 46.8499C117.254 46.759 116.522 46.4104 115.991 45.8039C115.46 45.1855 115.236 44.4523 115.319 43.6043C115.402 42.7564 115.715 41.8947 116.258 41.0193C116.803 40.132 117.464 39.4067 118.243 38.8436C119.021 38.2805 119.763 38.0333 120.467 38.102C121.172 38.1707 121.778 38.5674 122.286 39.2922C122.806 40.018 123.035 40.7035 122.972 41.3484ZM120.419 39.526C119.977 39.4829 119.494 39.671 118.971 40.0902C118.449 40.4975 117.988 41.0252 117.587 41.6733C118.054 41.8274 118.593 41.9341 119.202 41.9935C119.811 42.0529 120.352 42.0092 120.824 41.8624C121.298 41.7036 121.55 41.463 121.582 41.1405C121.613 40.818 121.496 40.475 121.23 40.1115C120.976 39.7491 120.705 39.554 120.419 39.526ZM128.945 38.9286C129.482 38.981 129.951 39.304 130.351 39.8977C130.753 40.4794 130.932 40.9912 130.889 41.4331C130.847 41.8631 130.654 42.2904 130.312 42.7151C130.437 42.9083 130.494 43.0705 130.481 43.2019C130.449 43.5363 130.315 44.102 130.081 44.899C129.858 45.6972 129.717 46.22 129.656 46.4673C129.608 46.7157 129.564 46.9165 129.525 47.0694C129.487 47.2104 129.444 47.3508 129.394 47.4906C129.317 47.7845 129.195 47.9234 129.028 47.907C128.813 47.8861 128.652 47.6835 128.544 47.2993C128.45 46.9043 128.42 46.407 128.455 45.8075C127.26 47.0535 126.209 47.6322 125.301 47.5437C124.752 47.4901 124.231 47.2042 123.739 46.686C123.26 46.1571 123.045 45.6418 123.094 45.1402C123.164 44.4236 123.513 43.5654 124.141 42.5656C124.77 41.5539 125.543 40.6767 126.459 39.9342C127.376 39.1916 128.204 38.8564 128.945 38.9286ZM129.461 42.162C129.57 41.0513 129.403 40.4744 128.961 40.4313C128.495 40.3859 127.919 40.6673 127.233 41.2756C126.548 41.8719 125.949 42.5671 125.438 43.3612C124.926 44.1553 124.647 44.7972 124.599 45.2869C124.579 45.4899 124.647 45.6653 124.801 45.813C124.956 45.9487 125.148 46.0276 125.375 46.0498C125.936 46.1045 126.606 45.79 127.384 45.1063C128.163 44.4106 128.743 43.5328 129.123 42.4727C129.177 42.297 129.289 42.1995 129.459 42.1799L129.461 42.162ZM136.448 36.1156C136.23 38.3609 135.48 41.2297 134.199 44.7219C133.364 47.1001 132.827 48.2775 132.588 48.2542C132.421 48.2379 132.237 48.0873 132.035 47.8025C131.846 47.5187 131.758 47.3052 131.772 47.1619C131.786 47.0186 132.032 46.295 132.509 44.9911C132.985 43.6872 133.492 42.0788 134.028 40.1658C134.565 38.2408 134.91 36.4961 135.063 34.9315C135.079 34.7643 135.115 34.6472 135.169 34.5802C135.224 34.5132 135.329 34.4873 135.485 34.5024C135.64 34.5175 135.844 34.7123 136.097 35.0866C136.363 35.4501 136.48 35.7931 136.448 36.1156ZM151.175 43.0133L150.721 46.3691C150.631 47.3007 150.607 47.9796 150.65 48.4058C151.215 47.9184 151.719 47.3345 152.159 46.654C152.612 45.9627 152.958 45.3153 153.198 44.7117C153.45 44.1092 153.667 43.5457 153.851 43.0211C154.048 42.4857 154.222 42.0625 154.373 41.7517C154.524 41.4409 154.677 41.293 154.832 41.3082C155.059 41.3303 155.253 41.4457 155.413 41.6542C155.575 41.8508 155.644 42.0686 155.621 42.3074C155.561 42.9166 155.189 43.893 154.503 45.2368C153.912 46.4813 153.187 47.6043 152.33 48.6058C151.474 49.5954 150.837 50.0698 150.419 50.0291C150.001 49.9883 149.707 49.7245 149.538 49.2378C149.38 48.7522 149.353 47.8514 149.457 46.5353C149.563 45.2072 149.693 44.0624 149.847 43.1008C148.804 45.2658 147.91 46.8907 147.165 47.9756C146.42 49.0604 145.862 49.5848 145.492 49.5487C145.325 49.5324 145.153 49.4373 144.978 49.2634C144.813 49.0906 144.69 48.8736 144.607 48.6123C144.406 47.9537 144.297 46.7253 144.279 44.9271C144.275 43.1181 144.31 41.8315 144.384 41.0671C144.432 40.5774 144.605 40.3471 144.904 40.3762C145.166 40.4019 145.391 40.5744 145.577 40.894C145.774 41.2147 145.877 41.5261 145.883 41.8282C145.891 42.1183 145.842 42.9334 145.735 44.2734C145.642 45.6026 145.64 46.796 145.73 47.8537C146.302 47.0535 146.896 46.0383 147.51 44.8081C148.136 43.5791 148.64 42.6154 149.022 41.9172C149.415 41.2201 149.743 40.8843 150.006 40.9099C150.4 40.9484 150.704 41.1649 150.919 41.5596C151.147 41.9436 151.232 42.4281 151.175 43.0133ZM161.326 45.1606C161.366 44.7545 161.337 44.3659 161.241 43.9948C161.146 43.6118 160.981 43.3244 160.746 43.1328C159.9 43.2793 159.127 43.849 158.427 44.8418C157.741 45.8238 157.353 46.7746 157.263 47.6943C157.173 48.6139 157.344 49.2093 157.776 49.4805C158.652 49.3971 159.438 48.8829 160.133 47.9379C160.841 46.9821 161.239 46.0564 161.326 45.1606ZM156.599 44.8624C157.108 43.9716 157.726 43.2602 158.453 42.7283C159.193 42.1855 159.915 41.9485 160.62 42.0172C161.336 42.0871 161.904 42.4499 162.322 43.1056C162.742 43.7493 162.909 44.5071 162.824 45.379C162.74 46.2389 162.445 47.1024 161.938 47.9693C161.433 48.8243 160.781 49.5143 159.982 50.0392C159.197 50.5534 158.392 50.7703 157.568 50.69C156.959 50.6306 156.478 50.3004 156.127 49.6995C155.776 49.0985 155.642 48.3681 155.726 47.5082C155.811 46.6363 156.102 45.7544 156.599 44.8624ZM165.524 48.3189C166.86 46.4839 167.933 45.1296 168.741 44.256C169.563 43.3715 170.201 42.9514 170.655 42.9957C171.12 43.0411 171.532 43.3285 171.891 43.8577C172.261 44.3882 172.419 44.9281 172.366 45.4775C172.282 46.3374 171.982 47.3692 171.467 48.5729C170.527 50.7961 169.77 51.8798 169.197 51.8239C168.934 51.7983 168.82 51.6063 168.855 51.248C168.88 50.9972 169.055 50.5018 169.38 49.7619C169.718 49.0112 170.031 48.2761 170.318 47.5566C170.619 46.8263 170.787 46.276 170.823 45.9058C170.86 45.5236 170.828 45.2371 170.726 45.0463C170.636 44.8567 170.531 44.756 170.412 44.7444C170.304 44.7339 170.187 44.7587 170.061 44.8187C169.934 44.8787 169.785 44.9847 169.614 45.1368C169.454 45.29 169.301 45.4439 169.153 45.5982C169.006 45.7407 168.817 45.9513 168.585 46.2301C168.365 46.5101 168.178 46.7511 168.026 46.9533C167.875 47.1435 167.655 47.4235 167.365 47.7931C167.076 48.1628 166.856 48.4428 166.705 48.633C166.554 48.8232 166.354 49.081 166.105 49.4064C165.856 49.7318 165.657 49.9837 165.507 50.1619C165.369 50.3414 165.211 50.537 165.034 50.7488C164.692 51.1616 164.432 51.3592 164.252 51.3418C164.085 51.3255 163.901 51.1749 163.7 50.89C163.499 50.5932 163.409 50.3432 163.429 50.1402C163.435 50.0805 163.492 49.9233 163.602 49.6687C163.896 48.9981 164.23 48.1686 164.604 47.1802C164.979 46.1799 165.242 45.03 165.392 43.7305C165.513 42.8621 165.681 42.4384 165.896 42.4594C166.159 42.485 166.408 42.648 166.644 42.9483C166.88 43.2486 166.982 43.566 166.949 43.9004C166.918 44.2228 166.755 44.8459 166.46 45.7697C166.178 46.6826 165.866 47.5324 165.524 48.3189ZM175.198 50.6005C175.175 50.8274 175.296 50.9537 175.559 50.9793C176.012 51.0236 176.574 50.9517 177.243 50.7638C177.926 50.5651 178.303 50.4692 178.375 50.4762C178.59 50.4972 178.686 50.6211 178.664 50.8481C178.63 51.1944 178.233 51.5596 177.472 51.9436C176.723 52.3287 176.056 52.4927 175.471 52.4357C174.898 52.3798 174.435 52.1779 174.083 51.8301C173.732 51.4704 173.573 51.1233 173.606 50.7889C173.638 50.4545 173.751 50.0375 173.945 49.5379C174.139 49.0264 174.409 48.3594 174.755 47.5371C175.113 46.7039 175.398 46.0143 175.608 45.4681C175.034 45.5447 174.651 45.5737 174.46 45.5551C174.269 45.5364 174.087 45.4223 173.914 45.2125C173.755 44.992 173.684 44.7922 173.702 44.613C173.73 44.3264 174.533 44.1274 176.111 44.016C176.423 43.0457 176.616 42.1784 176.69 41.414C176.725 41.0557 176.862 40.8882 177.101 40.9115C177.304 40.9313 177.542 41.0871 177.815 41.379C178.089 41.6589 178.21 41.9601 178.179 42.2826C178.147 42.605 177.991 43.1624 177.708 43.9548C178.395 43.9615 178.941 43.9846 179.347 44.0242C180.064 44.0941 180.407 44.2843 180.377 44.5948C180.359 44.7739 180.148 44.904 179.742 44.985C179.348 45.0672 178.518 45.1731 177.251 45.3028C176.909 46.2219 176.487 47.2719 175.986 48.4528C175.486 49.6219 175.223 50.3377 175.198 50.6005ZM94.6899 61.1813C94.4709 63.4266 93.721 66.2954 92.44 69.7876C91.6053 72.1658 91.0685 73.3432 90.8296 73.32C90.6624 73.3036 90.4782 73.1531 90.2769 72.8682C90.0875 72.5845 89.9998 72.3709 90.0138 72.2276C90.0278 72.0843 90.2731 71.3607 90.7499 70.0568C91.2267 68.7529 91.7332 67.1445 92.2694 65.2315C92.8067 63.3066 93.1517 61.5618 93.3043 59.9972C93.3206 59.83 93.3561 59.7129 93.4109 59.6459C93.4656 59.5789 93.5706 59.553 93.7259 59.5681C93.8812 59.5833 94.0852 59.778 94.3381 60.1523C94.6041 60.5158 94.7213 60.8588 94.6899 61.1813ZM99.9749 65.2414C100.512 65.2938 100.981 65.6168 101.382 66.2104C101.783 66.7921 101.962 67.3039 101.919 67.7458C101.877 68.1758 101.685 68.6032 101.342 69.0279C101.468 69.221 101.524 69.3833 101.511 69.5146C101.479 69.8491 101.345 70.4148 101.111 71.2118C100.888 72.01 100.747 72.5327 100.687 72.78C100.638 73.0285 100.595 73.2292 100.556 73.3821C100.518 73.5231 100.474 73.6635 100.424 73.8034C100.347 74.0973 100.225 74.2361 100.058 74.2198C99.843 74.1988 99.6819 73.9962 99.5747 73.612C99.4806 73.217 99.4507 72.7198 99.485 72.1203C98.2905 73.3662 97.2393 73.945 96.3316 73.8564C95.7822 73.8029 95.2615 73.517 94.7695 72.9988C94.2906 72.4698 94.0756 71.9545 94.1245 71.4529C94.1944 70.7363 94.5433 69.8781 95.1713 68.8783C95.8004 67.8666 96.5732 66.9895 97.4896 66.2469C98.406 65.5043 99.2344 65.1691 99.9749 65.2414ZM100.492 68.4748C100.6 67.364 100.433 66.7871 99.9912 66.744C99.5254 66.6986 98.9493 66.98 98.2631 67.5883C97.578 68.1846 96.9797 68.8798 96.4682 69.674C95.9567 70.4681 95.6771 71.11 95.6293 71.5996C95.6095 71.8027 95.6768 71.978 95.8312 72.1257C95.9868 72.2614 96.178 72.3404 96.405 72.3625C96.9663 72.4172 97.636 72.1028 98.414 71.419C99.1932 70.7234 99.7731 69.8455 100.154 68.7854C100.207 68.6098 100.319 68.5122 100.49 68.4927L100.492 68.4748ZM108.731 66.0951C109.137 66.1347 109.497 66.3989 109.811 66.8877C110.126 67.3645 110.268 67.7702 110.235 68.1046C110.215 68.3076 110.11 68.3998 109.919 68.3812C109.787 68.3684 109.594 68.2471 109.339 68.0172C109.085 67.7755 108.815 67.6406 108.529 67.6127C108.242 67.5847 107.772 67.7077 107.118 67.9815C106.476 68.2566 106.138 68.5792 106.101 68.9494C106.075 69.2241 106.578 69.7495 107.612 70.5254C108.004 70.8289 108.347 71.206 108.641 71.6566C108.947 72.0965 109.078 72.5553 109.031 73.033C108.986 73.4988 108.612 73.9266 107.911 74.3164C107.223 74.6954 106.443 74.8424 105.571 74.7574C104.711 74.6735 103.967 74.39 103.339 73.9068C102.723 73.4247 102.433 72.9985 102.469 72.6283C102.484 72.473 102.532 72.3571 102.612 72.2805C102.705 72.1931 102.811 72.1552 102.93 72.1669C103.05 72.1785 103.209 72.2724 103.409 72.4487C104.009 72.9773 104.655 73.2755 105.348 73.343C106.052 73.4117 106.567 73.3836 106.893 73.2586C107.22 73.1217 107.396 72.9218 107.422 72.6591C107.448 72.3844 107.303 72.0808 106.986 71.7485C106.67 71.4042 106.315 71.0922 105.92 70.8126C105.537 70.5341 105.189 70.2048 104.877 69.8247C104.564 69.4446 104.425 69.0754 104.46 68.7171C104.522 68.0841 105.082 67.4755 106.139 66.8914C107.21 66.2965 108.074 66.0311 108.731 66.0951ZM112.55 73.6293C112.528 73.8562 112.648 73.9825 112.911 74.0081C113.365 74.0524 113.926 73.9806 114.596 73.7926C115.278 73.5939 115.655 73.4981 115.727 73.5051C115.942 73.526 116.038 73.65 116.016 73.8769C115.982 74.2232 115.585 74.5884 114.824 74.9724C114.075 75.3575 113.408 75.5216 112.823 75.4645C112.25 75.4086 111.787 75.2067 111.435 74.859C111.084 74.4992 110.925 74.1521 110.958 73.8177C110.991 73.4833 111.104 73.0663 111.297 72.5667C111.492 72.0552 111.762 71.3882 112.107 70.5659C112.466 69.7328 112.75 69.0431 112.96 68.4969C112.386 68.5735 112.003 68.6025 111.812 68.5839C111.621 68.5653 111.439 68.4511 111.267 68.2414C111.107 68.0209 111.036 67.821 111.054 67.6419C111.082 67.3552 111.885 67.1562 113.463 67.0449C113.775 66.0745 113.968 65.2072 114.042 64.4428C114.077 64.0845 114.214 63.917 114.453 63.9403C114.656 63.9601 114.894 64.1159 115.167 64.4078C115.441 64.6877 115.563 64.9889 115.531 65.3114C115.5 65.6339 115.343 66.1913 115.061 66.9836C115.747 66.9903 116.294 67.0134 116.7 67.053C117.416 67.1229 117.759 67.3131 117.729 67.6236C117.712 67.8028 117.5 67.9328 117.094 68.0138C116.7 68.096 115.87 68.2019 114.604 68.3316C114.261 69.2507 113.839 70.3007 113.338 71.4817C112.838 72.6507 112.575 73.3666 112.55 73.6293ZM129.225 64.5488C129.006 66.7941 128.256 69.6629 126.975 73.1551C126.141 75.5333 125.604 76.7107 125.365 76.6875C125.198 76.6712 125.014 76.5206 124.812 76.2357C124.623 75.952 124.535 75.7384 124.549 75.5951C124.563 75.4518 124.809 74.7282 125.285 73.4243C125.762 72.1204 126.269 70.512 126.805 68.599C127.342 66.6741 127.687 64.9293 127.84 63.3647C127.856 63.1975 127.892 63.0804 127.946 63.0134C128.001 62.9464 128.106 62.9205 128.261 62.9356C128.417 62.9508 128.621 63.1455 128.874 63.5198C129.139 63.8833 129.257 64.2263 129.225 64.5488ZM134.858 71.7173C134.898 71.3112 134.869 70.9226 134.773 70.5515C134.678 70.1685 134.513 69.8811 134.278 69.6894C133.432 69.836 132.659 70.4057 131.96 71.3985C131.273 72.3805 130.885 73.3313 130.795 74.2509C130.706 75.1706 130.877 75.766 131.308 76.0372C132.185 75.9538 132.97 75.4396 133.665 74.4946C134.373 73.5388 134.771 72.6131 134.858 71.7173ZM130.131 71.4191C130.64 70.5283 131.258 69.8169 131.985 69.285C132.725 68.7422 133.447 68.5052 134.152 68.5739C134.869 68.6438 135.436 69.0066 135.854 69.6623C136.274 70.306 136.441 71.0638 136.356 71.9357C136.272 72.7956 135.977 73.659 135.471 74.526C134.965 75.381 134.313 76.071 133.515 76.5959C132.729 77.1101 131.924 77.327 131.1 77.2467C130.491 77.1873 130.011 76.8571 129.659 76.2562C129.308 75.6552 129.174 74.9248 129.258 74.0649C129.343 73.193 129.634 72.3111 130.131 71.4191ZM139.056 74.8756C140.392 73.0406 141.465 71.6863 142.273 70.8127C143.095 69.9282 143.733 69.5081 144.187 69.5524C144.652 69.5978 145.065 69.8852 145.423 70.4144C145.793 70.9449 145.951 71.4848 145.898 72.0342C145.814 72.8941 145.515 73.9259 144.999 75.1296C144.059 77.3528 143.302 78.4365 142.729 78.3806C142.466 78.355 142.352 78.163 142.387 77.8047C142.412 77.5539 142.587 77.0585 142.912 76.3186C143.25 75.5679 143.563 74.8328 143.85 74.1133C144.151 73.383 144.319 72.8327 144.355 72.4625C144.392 72.0803 144.36 71.7938 144.258 71.603C144.168 71.4134 144.063 71.3127 143.944 71.3011C143.836 71.2906 143.719 71.3154 143.593 71.3754C143.467 71.4354 143.318 71.5414 143.146 71.6935C142.986 71.8467 142.833 72.0005 142.685 72.1549C142.539 72.2974 142.349 72.508 142.117 72.7868C141.897 73.0667 141.711 73.3078 141.558 73.51C141.407 73.7002 141.187 73.9802 140.898 74.3498C140.608 74.7195 140.388 74.9995 140.237 75.1897C140.086 75.3799 139.886 75.6377 139.637 75.9631C139.388 76.2885 139.189 76.5403 139.039 76.7186C138.901 76.8981 138.743 77.0937 138.566 77.3055C138.224 77.7183 137.964 77.9159 137.785 77.8985C137.617 77.8822 137.433 77.7316 137.232 77.4467C137.032 77.1499 136.941 76.8999 136.961 76.6969C136.967 76.6372 137.025 76.48 137.134 76.2254C137.428 75.5548 137.762 74.7253 138.136 73.7369C138.511 72.7366 138.774 71.5867 138.925 70.2872C139.045 69.4188 139.213 68.9951 139.428 69.0161C139.691 69.0417 139.94 69.2047 140.176 69.505C140.412 69.8053 140.514 70.1227 140.481 70.4571C140.45 70.7795 140.287 71.4026 139.992 72.3264C139.71 73.2393 139.398 74.089 139.056 74.8756ZM154.115 74.6077C154.068 75.0855 153.806 75.6085 153.329 76.1769C152.935 76.874 152.486 77.8912 151.982 79.2286C151.479 80.554 151.074 81.4971 150.766 82.0579C150.145 83.2272 149.316 83.7612 148.277 83.6599C147.429 83.5772 146.735 83.2744 146.195 82.7516C145.666 82.2418 145.423 81.76 145.468 81.3062C145.486 81.1151 145.565 80.9298 145.703 80.7504C145.829 80.5698 145.952 80.4853 146.071 80.4969C146.202 80.5097 146.337 80.6133 146.475 80.8076C146.613 81.0019 146.737 81.2069 146.849 81.4228C146.971 81.6517 147.161 81.8692 147.418 82.0751C147.687 82.2822 147.953 82.3986 148.216 82.4242C148.479 82.4498 148.68 82.4272 148.82 82.3564C148.958 82.2976 149.096 82.1844 149.233 82.0169C149.368 81.8614 149.487 81.6981 149.588 81.5271C149.688 81.368 149.801 81.1319 149.928 80.8188C150.066 80.5187 150.176 80.2581 150.257 80.037C150.339 79.8159 150.454 79.5076 150.601 79.112C150.749 78.7045 150.871 78.3788 150.967 78.135C149.968 78.7368 149.176 79.0092 148.591 78.9522C148.006 78.8951 147.521 78.6127 147.136 78.105C146.753 77.5854 146.591 77.015 146.652 76.3939C146.714 75.7609 147.028 74.9476 147.595 73.954C148.174 72.9615 148.904 72.0922 149.785 71.3461C150.665 70.6001 151.488 70.2643 152.252 70.3388C152.742 70.3866 153.136 70.6119 153.434 71.0147C153.924 71.6774 154.114 72.5701 154.005 73.6928C153.991 73.8361 153.975 73.937 153.957 73.9956C154.081 74.2126 154.133 74.4166 154.115 74.6077ZM148.086 76.7146C148.066 76.9176 148.115 77.0912 148.234 77.2354C148.354 77.3677 148.515 77.4437 148.718 77.4635C149.315 77.5217 150.054 77.2381 150.935 76.6126C151.817 75.9752 152.471 75.2011 152.898 74.2901C152.865 74.1302 152.847 73.8873 152.842 73.5613C152.838 73.2353 152.827 72.9751 152.81 72.7805C152.793 72.5859 152.734 72.3872 152.633 72.1845C152.533 71.9698 152.388 71.8532 152.197 71.8345C151.731 71.7891 151.173 72.0723 150.522 72.684C149.872 73.2958 149.315 73.9951 148.853 74.7819C148.39 75.5687 148.135 76.213 148.086 76.7146Z" fill="#F9B939"/>
</svg>
