<?xml version="1.0" encoding="utf-8"?>
<!-- Generator: Adobe Illustrator 17.0.0, SVG Export Plug-In . SVG Version: 6.00 Build 0)  -->
<!DOCTYPE svg PUBLIC "-//W3C//DTD SVG 1.1//EN" "http://www.w3.org/Graphics/SVG/1.1/DTD/svg11.dtd">
<svg version="1.1" id="Layer_1" xmlns="http://www.w3.org/2000/svg" xmlns:xlink="http://www.w3.org/1999/xlink" x="0px" y="0px"
	 width="1200px" height="800px" viewBox="0 0 1200 800" enable-background="new 0 0 1200 800" xml:space="preserve">
<rect y="-4.667" fill="#020E56" width="1200" height="804.667"/>
<circle fill="#4790C5" cx="323.583" cy="461.412" r="175.42"/>
<path fill="#4790C5" d="M128.24,183.233c-26.432-27.991-63.018-36.366-81.719-18.708l-12.697,11.99
	c-18.7,17.659-12.432,54.665,13.999,82.656L272.76,497.375c26.432,27.991,63.018,36.366,81.719,18.708l12.697-11.99
	c18.7-17.659,12.432-54.665-13.999-82.656L128.24,183.233z"/>
<path fill="#4790C5" d="M424.24,49.233c-26.432-27.991-63.018-36.366-81.719-18.708l-12.697,11.99
	c-18.7,17.659-12.432,54.665,13.999,82.656L568.76,363.375c26.432,27.991,63.018,36.366,81.719,18.708l12.697-11.99
	c18.7-17.659,12.432-54.665-13.999-82.656L424.24,49.233z"/>
<path fill="#4790C5" d="M404.74,256.234c-26.432-27.991-63.018-36.366-81.719-18.708l-12.697,11.99
	c-18.7,17.659-12.432,54.665,13.999,82.656L549.26,570.375c26.432,27.991,63.018,36.366,81.719,18.708l12.697-11.99
	c18.7-17.659,12.432-54.665-13.999-82.655L404.74,256.234z"/>
<path fill="#4790C5" d="M832.74,422.234c-26.432-27.991-63.018-36.366-81.719-18.708l-12.697,11.99
	c-18.7,17.659-12.432,54.665,13.999,82.656L977.26,736.375c26.432,27.991,63.018,36.366,81.719,18.708l12.697-11.99
	c18.7-17.659,12.432-54.665-13.999-82.655L832.74,422.234z"/>
<path fill="#4790C5" d="M150.24,426.233c-26.432-27.991-63.018-36.366-81.719-18.708l-12.697,11.99
	c-18.7,17.659-12.432,54.665,13.999,82.655l224.937,238.204c26.432,27.991,63.018,36.366,81.719,18.708l12.697-11.99
	c18.7-17.659,12.432-54.665-13.999-82.656L150.24,426.233z"/>
<path fill="#4790C5" d="M902.514,112.685c-30.969-32.795-76.617-39.982-101.958-16.052l-17.206,16.248
	c-25.341,23.93-20.779,69.914,10.19,102.709l263.547,279.09c30.969,32.795,76.617,39.982,101.958,16.052l17.206-16.248
	c25.341-23.93,20.779-69.914-10.19-102.709L902.514,112.685z"/>
<path opacity="0.4" fill="#001F75" d="M1006.329,305.023c-19.947-21.123-47.557-27.444-61.669-14.118l-9.582,9.048
	c-14.112,13.326-9.382,41.253,10.565,62.376l169.749,179.76c19.947,21.123,47.557,27.444,61.669,14.118l9.582-9.048
	c14.112-13.326,9.382-41.253-10.565-62.376L1006.329,305.023z"/>
<circle opacity="0.4" fill="#001F75" cx="393" cy="560.333" r="57.052"/>
<circle opacity="0.4" fill="#001F75" cx="825.583" cy="423.412" r="259.436"/>
<circle opacity="0.4" fill="#001F75" cx="402.317" cy="104.103" r="57.052"/>
<circle opacity="0.4" fill="#001F75" cx="1018.786" cy="698.073" r="57.052"/>
<polygon fill="#FFFFFF" points="171.217,150.246 155.72,150.653 154.521,135.197 135.886,135.684 133.415,145.216 145.779,144.894 
	146.979,160.351 162.476,159.944 163.673,175.399 179.17,174.992 180.371,190.448 195.873,190.045 197.074,205.503 212.579,205.104 
	213.543,217.442 222.767,213.996 221.318,195.409 205.813,195.809 204.613,180.351 189.111,180.754 187.912,165.295 
	172.414,165.701 "/>
<polygon fill="#FFFFFF" points="164.545,264.343 151.736,264.68 150.745,251.904 135.343,252.307 133.301,260.186 143.52,259.919 
	144.512,272.695 157.32,272.359 158.31,285.133 171.119,284.797 172.111,297.571 184.924,297.239 185.917,310.015 198.733,309.685 
	199.529,319.883 207.153,317.035 205.956,301.672 193.14,302.003 192.148,289.226 179.335,289.559 178.344,276.781 165.535,277.118 
	"/>
<polygon fill="#FFFFFF" points="817.012,445.834 804.204,446.171 803.212,433.395 787.811,433.798 785.768,441.677 795.987,441.41 
	796.979,454.186 809.788,453.849 810.777,466.624 823.586,466.288 824.579,479.062 837.392,478.73 838.384,491.506 851.2,491.176 
	851.997,501.374 859.62,498.526 858.423,483.163 845.608,483.494 844.615,470.717 831.803,471.05 830.811,458.272 818.002,458.609 
	"/>
<polygon fill="#FFFFFF" points="986.504,210.346 973.695,210.683 972.704,197.907 957.302,198.31 955.26,206.189 965.479,205.922 
	966.47,218.698 979.279,218.361 980.269,231.136 993.078,230.799 994.07,243.574 1006.883,243.241 1007.876,256.018 
	1020.692,255.688 1021.488,265.886 1029.112,263.038 1027.915,247.675 1015.099,248.005 1014.107,235.229 1001.294,235.562 
	1000.303,222.784 987.494,223.12 "/>
<polygon fill="#FFFFFF" points="900.564,183.895 809.945,185.012 804.195,94.561 695.229,95.891 680.006,151.41 752.307,150.534 
	758.057,240.985 848.676,239.868 854.416,330.31 945.037,329.196 950.795,419.64 1041.444,418.552 1047.2,509.008 1137.871,507.94 
	1142.498,580.143 1196.696,560.753 1189.745,451.982 1099.079,453.055 1093.323,362.598 1002.674,363.686 996.924,273.223 
	906.303,274.337 "/>
<polygon fill="#FFFFFF" points="212.564,301.895 121.945,303.012 116.194,212.561 7.229,213.891 -7.994,269.41 64.307,268.534 
	70.057,358.985 160.676,357.868 166.416,448.31 257.037,447.196 262.795,537.64 353.444,536.552 359.2,627.008 449.871,625.94 
	454.498,698.143 508.696,678.753 501.745,569.982 411.079,571.055 405.323,480.598 314.674,481.686 308.924,391.223 
	218.303,392.337 "/>
<g>
	<circle fill="#FFFFFF" cx="841.072" cy="555.599" r="1.682"/>
	<circle fill="#FFFFFF" cx="822.541" cy="574.129" r="1.682"/>
	<circle fill="#FFFFFF" cx="804.01" cy="592.66" r="1.682"/>
	<circle fill="#FFFFFF" cx="785.479" cy="611.191" r="1.682"/>
	<circle fill="#FFFFFF" cx="766.948" cy="629.722" r="1.682"/>
	<circle fill="#FFFFFF" cx="748.418" cy="648.253" r="1.682"/>
	<circle fill="#FFFFFF" cx="729.887" cy="666.783" r="1.682"/>
	<circle fill="#FFFFFF" cx="711.356" cy="685.314" r="1.682"/>
	<circle fill="#FFFFFF" cx="692.826" cy="703.845" r="1.682"/>
	<circle fill="#FFFFFF" cx="674.295" cy="722.375" r="1.682"/>
	<circle fill="#FFFFFF" cx="655.764" cy="740.906" r="1.682"/>
	<circle fill="#FFFFFF" cx="822.442" cy="536.969" r="1.682"/>
	<circle fill="#FFFFFF" cx="803.911" cy="555.5" r="1.682"/>
	<circle fill="#FFFFFF" cx="785.38" cy="574.03" r="1.682"/>
	<circle fill="#FFFFFF" cx="766.849" cy="592.561" r="1.682"/>
	<circle fill="#FFFFFF" cx="748.319" cy="611.092" r="1.682"/>
	<circle fill="#FFFFFF" cx="729.788" cy="629.623" r="1.682"/>
	<circle fill="#FFFFFF" cx="711.257" cy="648.154" r="1.682"/>
	<circle fill="#FFFFFF" cx="692.726" cy="666.684" r="1.682"/>
	<circle fill="#FFFFFF" cx="674.196" cy="685.215" r="1.682"/>
	<circle fill="#FFFFFF" cx="655.665" cy="703.746" r="1.682"/>
	<circle fill="#FFFFFF" cx="637.134" cy="722.276" r="1.682"/>
	<circle fill="#FFFFFF" cx="803.812" cy="518.339" r="1.682"/>
	<circle fill="#FFFFFF" cx="785.281" cy="536.87" r="1.682"/>
	<circle fill="#FFFFFF" cx="766.75" cy="555.401" r="1.682"/>
	<circle fill="#FFFFFF" cx="748.22" cy="573.931" r="1.682"/>
	<circle fill="#FFFFFF" cx="729.689" cy="592.462" r="1.682"/>
	<circle fill="#FFFFFF" cx="711.158" cy="610.993" r="1.682"/>
	<circle fill="#FFFFFF" cx="692.627" cy="629.523" r="1.682"/>
	<circle fill="#FFFFFF" cx="674.097" cy="648.054" r="1.682"/>
	<circle fill="#FFFFFF" cx="655.566" cy="666.585" r="1.682"/>
	<circle fill="#FFFFFF" cx="637.035" cy="685.116" r="1.682"/>
	<circle fill="#FFFFFF" cx="618.505" cy="703.647" r="1.682"/>
	<circle fill="#FFFFFF" cx="785.182" cy="499.709" r="1.682"/>
	<circle fill="#FFFFFF" cx="766.651" cy="518.24" r="1.682"/>
	<circle fill="#FFFFFF" cx="748.12" cy="536.771" r="1.682"/>
	<circle fill="#FFFFFF" cx="729.59" cy="555.302" r="1.682"/>
	<circle fill="#FFFFFF" cx="711.059" cy="573.832" r="1.682"/>
	<circle fill="#FFFFFF" cx="692.528" cy="592.363" r="1.682"/>
	<circle fill="#FFFFFF" cx="673.998" cy="610.894" r="1.682"/>
	<circle fill="#FFFFFF" cx="655.467" cy="629.424" r="1.682"/>
	<circle fill="#FFFFFF" cx="636.936" cy="647.955" r="1.682"/>
	<circle fill="#FFFFFF" cx="618.405" cy="666.486" r="1.682"/>
	<circle fill="#FFFFFF" cx="599.875" cy="685.017" r="1.682"/>
	<circle fill="#FFFFFF" cx="766.552" cy="481.08" r="1.682"/>
	<circle fill="#FFFFFF" cx="748.021" cy="499.61" r="1.682"/>
	<circle fill="#FFFFFF" cx="729.491" cy="518.141" r="1.682"/>
	<circle fill="#FFFFFF" cx="710.96" cy="536.672" r="1.682"/>
	<circle fill="#FFFFFF" cx="692.429" cy="555.202" r="1.682"/>
	<circle fill="#FFFFFF" cx="673.898" cy="573.733" r="1.682"/>
	<circle fill="#FFFFFF" cx="655.368" cy="592.264" r="1.682"/>
	<circle fill="#FFFFFF" cx="636.837" cy="610.795" r="1.682"/>
	<circle fill="#FFFFFF" cx="618.306" cy="629.325" r="1.682"/>
	<circle fill="#FFFFFF" cx="599.776" cy="647.856" r="1.682"/>
	<circle fill="#FFFFFF" cx="581.245" cy="666.387" r="1.682"/>
	<circle fill="#FFFFFF" cx="747.922" cy="462.45" r="1.682"/>
	<circle fill="#FFFFFF" cx="729.392" cy="480.98" r="1.682"/>
	<circle fill="#FFFFFF" cx="710.861" cy="499.511" r="1.682"/>
	<circle fill="#FFFFFF" cx="692.33" cy="518.042" r="1.682"/>
	<circle fill="#FFFFFF" cx="673.799" cy="536.573" r="1.682"/>
	<circle fill="#FFFFFF" cx="655.269" cy="555.103" r="1.682"/>
	<circle fill="#FFFFFF" cx="636.738" cy="573.634" r="1.682"/>
	<circle fill="#FFFFFF" cx="618.207" cy="592.165" r="1.682"/>
	<circle fill="#FFFFFF" cx="599.677" cy="610.695" r="1.682"/>
	<circle fill="#FFFFFF" cx="581.146" cy="629.226" r="1.682"/>
	<circle fill="#FFFFFF" cx="562.615" cy="647.757" r="1.682"/>
	<circle fill="#FFFFFF" cx="729.292" cy="443.82" r="1.682"/>
	<circle fill="#FFFFFF" cx="710.762" cy="462.351" r="1.682"/>
	<circle fill="#FFFFFF" cx="692.231" cy="480.881" r="1.682"/>
	<circle fill="#FFFFFF" cx="673.7" cy="499.412" r="1.682"/>
	<circle fill="#FFFFFF" cx="655.17" cy="517.943" r="1.682"/>
	<circle fill="#FFFFFF" cx="636.639" cy="536.474" r="1.682"/>
	<circle fill="#FFFFFF" cx="618.108" cy="555.004" r="1.682"/>
	<circle fill="#FFFFFF" cx="599.577" cy="573.535" r="1.682"/>
	<circle fill="#FFFFFF" cx="581.047" cy="592.066" r="1.682"/>
	<circle fill="#FFFFFF" cx="562.516" cy="610.596" r="1.682"/>
	<circle fill="#FFFFFF" cx="543.985" cy="629.127" r="1.682"/>
	<circle fill="#FFFFFF" cx="710.663" cy="425.19" r="1.682"/>
	<circle fill="#FFFFFF" cx="692.132" cy="443.721" r="1.682"/>
	<circle fill="#FFFFFF" cx="673.601" cy="462.252" r="1.682"/>
	<circle fill="#FFFFFF" cx="655.071" cy="480.782" r="1.682"/>
	<circle fill="#FFFFFF" cx="636.54" cy="499.313" r="1.682"/>
	<circle fill="#FFFFFF" cx="618.009" cy="517.844" r="1.682"/>
	<circle fill="#FFFFFF" cx="599.478" cy="536.374" r="1.682"/>
	<circle fill="#FFFFFF" cx="580.948" cy="554.905" r="1.682"/>
	<circle fill="#FFFFFF" cx="562.417" cy="573.436" r="1.682"/>
	<circle fill="#FFFFFF" cx="543.886" cy="591.967" r="1.682"/>
	<circle fill="#FFFFFF" cx="525.355" cy="610.497" r="1.682"/>
	<circle fill="#FFFFFF" cx="692.033" cy="406.56" r="1.682"/>
	<circle fill="#FFFFFF" cx="673.502" cy="425.091" r="1.682"/>
	<circle fill="#FFFFFF" cx="654.971" cy="443.622" r="1.682"/>
	<circle fill="#FFFFFF" cx="636.441" cy="462.152" r="1.682"/>
	<circle fill="#FFFFFF" cx="617.91" cy="480.683" r="1.682"/>
	<circle fill="#FFFFFF" cx="599.379" cy="499.214" r="1.682"/>
	<circle fill="#FFFFFF" cx="580.849" cy="517.745" r="1.682"/>
	<circle fill="#FFFFFF" cx="562.318" cy="536.275" r="1.682"/>
	<circle fill="#FFFFFF" cx="543.787" cy="554.806" r="1.682"/>
	<circle fill="#FFFFFF" cx="525.256" cy="573.337" r="1.682"/>
	<circle fill="#FFFFFF" cx="506.725" cy="591.868" r="1.682"/>
	<circle fill="#FFFFFF" cx="673.403" cy="387.93" r="1.682"/>
	<circle fill="#FFFFFF" cx="654.872" cy="406.461" r="1.682"/>
	<circle fill="#FFFFFF" cx="636.342" cy="424.992" r="1.682"/>
	<circle fill="#FFFFFF" cx="617.811" cy="443.522" r="1.682"/>
	<circle fill="#FFFFFF" cx="599.28" cy="462.053" r="1.682"/>
	<circle fill="#FFFFFF" cx="580.749" cy="480.584" r="1.682"/>
	<circle fill="#FFFFFF" cx="562.218" cy="499.115" r="1.682"/>
	<circle fill="#FFFFFF" cx="543.688" cy="517.646" r="1.682"/>
	<circle fill="#FFFFFF" cx="525.157" cy="536.176" r="1.682"/>
	<circle fill="#FFFFFF" cx="506.626" cy="554.707" r="1.682"/>
	<circle fill="#FFFFFF" cx="488.096" cy="573.238" r="1.682"/>
	<circle fill="#FFFFFF" cx="654.773" cy="369.3" r="1.682"/>
	<circle fill="#FFFFFF" cx="636.243" cy="387.831" r="1.682"/>
	<circle fill="#FFFFFF" cx="617.712" cy="406.362" r="1.682"/>
	<circle fill="#FFFFFF" cx="599.181" cy="424.893" r="1.682"/>
	<circle fill="#FFFFFF" cx="580.65" cy="443.423" r="1.682"/>
	<circle fill="#FFFFFF" cx="562.119" cy="461.954" r="1.682"/>
	<circle fill="#FFFFFF" cx="543.589" cy="480.485" r="1.682"/>
	<circle fill="#FFFFFF" cx="525.058" cy="499.016" r="1.682"/>
	<circle fill="#FFFFFF" cx="506.527" cy="517.546" r="1.682"/>
	<circle fill="#FFFFFF" cx="487.997" cy="536.077" r="1.682"/>
	<circle fill="#FFFFFF" cx="469.466" cy="554.608" r="1.682"/>
	<circle fill="#FFFFFF" cx="636.143" cy="350.671" r="1.682"/>
	<circle fill="#FFFFFF" cx="617.613" cy="369.201" r="1.682"/>
	<circle fill="#FFFFFF" cx="599.082" cy="387.732" r="1.682"/>
	<circle fill="#FFFFFF" cx="580.551" cy="406.263" r="1.682"/>
	<circle fill="#FFFFFF" cx="562.02" cy="424.794" r="1.682"/>
	<circle fill="#FFFFFF" cx="543.49" cy="443.324" r="1.682"/>
	<circle fill="#FFFFFF" cx="524.959" cy="461.855" r="1.682"/>
	<circle fill="#FFFFFF" cx="506.428" cy="480.386" r="1.682"/>
	<circle fill="#FFFFFF" cx="487.897" cy="498.917" r="1.682"/>
	<circle fill="#FFFFFF" cx="469.367" cy="517.447" r="1.682"/>
	<circle fill="#FFFFFF" cx="450.836" cy="535.978" r="1.682"/>
	<circle fill="#FFFFFF" cx="617.513" cy="332.041" r="1.682"/>
	<circle fill="#FFFFFF" cx="598.983" cy="350.572" r="1.682"/>
	<circle fill="#FFFFFF" cx="580.452" cy="369.102" r="1.682"/>
	<circle fill="#FFFFFF" cx="561.921" cy="387.633" r="1.682"/>
	<circle fill="#FFFFFF" cx="543.391" cy="406.164" r="1.682"/>
	<circle fill="#FFFFFF" cx="524.86" cy="424.694" r="1.682"/>
	<circle fill="#FFFFFF" cx="506.329" cy="443.225" r="1.682"/>
	<circle fill="#FFFFFF" cx="487.798" cy="461.756" r="1.682"/>
	<circle fill="#FFFFFF" cx="469.268" cy="480.287" r="1.682"/>
	<circle fill="#FFFFFF" cx="450.737" cy="498.818" r="1.682"/>
	<circle fill="#FFFFFF" cx="432.206" cy="517.348" r="1.682"/>
	<circle fill="#FFFFFF" cx="598.884" cy="313.411" r="1.682"/>
	<circle fill="#FFFFFF" cx="580.353" cy="331.942" r="1.682"/>
	<circle fill="#FFFFFF" cx="561.822" cy="350.473" r="1.682"/>
	<circle fill="#FFFFFF" cx="543.291" cy="369.003" r="1.682"/>
	<circle fill="#FFFFFF" cx="524.761" cy="387.534" r="1.682"/>
	<circle fill="#FFFFFF" cx="506.23" cy="406.065" r="1.682"/>
	<circle fill="#FFFFFF" cx="487.699" cy="424.595" r="1.682"/>
	<circle fill="#FFFFFF" cx="469.169" cy="443.126" r="1.682"/>
	<circle fill="#FFFFFF" cx="450.638" cy="461.657" r="1.682"/>
	<circle fill="#FFFFFF" cx="432.107" cy="480.188" r="1.682"/>
	<circle fill="#FFFFFF" cx="413.576" cy="498.719" r="1.682"/>
	<circle fill="#FFFFFF" cx="580.254" cy="294.781" r="1.682"/>
	<circle fill="#FFFFFF" cx="561.723" cy="313.312" r="1.682"/>
	<circle fill="#FFFFFF" cx="543.192" cy="331.843" r="1.682"/>
	<circle fill="#FFFFFF" cx="524.662" cy="350.373" r="1.682"/>
	<circle fill="#FFFFFF" cx="506.131" cy="368.904" r="1.682"/>
	<circle fill="#FFFFFF" cx="487.6" cy="387.435" r="1.682"/>
	<circle fill="#FFFFFF" cx="469.07" cy="405.966" r="1.682"/>
	<circle fill="#FFFFFF" cx="450.539" cy="424.496" r="1.682"/>
	<circle fill="#FFFFFF" cx="432.008" cy="443.027" r="1.682"/>
	<circle fill="#FFFFFF" cx="413.477" cy="461.558" r="1.682"/>
	<circle fill="#FFFFFF" cx="394.946" cy="480.089" r="1.682"/>
	<circle fill="#FFFFFF" cx="561.624" cy="276.151" r="1.682"/>
	<circle fill="#FFFFFF" cx="543.093" cy="294.682" r="1.682"/>
	<circle fill="#FFFFFF" cx="524.563" cy="313.213" r="1.682"/>
	<circle fill="#FFFFFF" cx="506.032" cy="331.744" r="1.682"/>
	<circle fill="#FFFFFF" cx="487.501" cy="350.274" r="1.682"/>
	<circle fill="#FFFFFF" cx="468.97" cy="368.805" r="1.682"/>
	<circle fill="#FFFFFF" cx="450.44" cy="387.336" r="1.682"/>
	<circle fill="#FFFFFF" cx="431.909" cy="405.867" r="1.682"/>
	<circle fill="#FFFFFF" cx="413.378" cy="424.397" r="1.682"/>
	<circle fill="#FFFFFF" cx="394.847" cy="442.928" r="1.682"/>
	<circle fill="#FFFFFF" cx="376.317" cy="461.459" r="1.682"/>
	<circle fill="#FFFFFF" cx="542.994" cy="257.521" r="1.682"/>
	<circle fill="#FFFFFF" cx="524.463" cy="276.052" r="1.682"/>
	<circle fill="#FFFFFF" cx="505.933" cy="294.583" r="1.682"/>
	<circle fill="#FFFFFF" cx="487.402" cy="313.114" r="1.682"/>
	<circle fill="#FFFFFF" cx="468.871" cy="331.645" r="1.682"/>
	<circle fill="#FFFFFF" cx="450.341" cy="350.175" r="1.682"/>
	<circle fill="#FFFFFF" cx="431.81" cy="368.706" r="1.682"/>
	<circle fill="#FFFFFF" cx="413.279" cy="387.237" r="1.682"/>
	<circle fill="#FFFFFF" cx="394.748" cy="405.767" r="1.682"/>
	<circle fill="#FFFFFF" cx="376.217" cy="424.298" r="1.682"/>
	<circle fill="#FFFFFF" cx="357.687" cy="442.829" r="1.682"/>
	<circle fill="#FFFFFF" cx="524.364" cy="238.892" r="1.682"/>
	<circle fill="#FFFFFF" cx="505.834" cy="257.422" r="1.682"/>
	<circle fill="#FFFFFF" cx="487.303" cy="275.953" r="1.682"/>
	<circle fill="#FFFFFF" cx="468.772" cy="294.484" r="1.682"/>
	<circle fill="#FFFFFF" cx="450.242" cy="313.015" r="1.682"/>
	<circle fill="#FFFFFF" cx="431.711" cy="331.545" r="1.682"/>
	<circle fill="#FFFFFF" cx="413.18" cy="350.076" r="1.682"/>
	<circle fill="#FFFFFF" cx="394.649" cy="368.607" r="1.682"/>
	<circle fill="#FFFFFF" cx="376.118" cy="387.138" r="1.682"/>
	<circle fill="#FFFFFF" cx="357.588" cy="405.668" r="1.682"/>
	<circle fill="#FFFFFF" cx="339.057" cy="424.199" r="1.682"/>
	<circle fill="#FFFFFF" cx="505.735" cy="220.262" r="1.682"/>
	<circle fill="#FFFFFF" cx="487.204" cy="238.793" r="1.682"/>
	<circle fill="#FFFFFF" cx="468.673" cy="257.323" r="1.682"/>
	<circle fill="#FFFFFF" cx="450.142" cy="275.854" r="1.682"/>
	<circle fill="#FFFFFF" cx="431.611" cy="294.385" r="1.682"/>
	<circle fill="#FFFFFF" cx="413.081" cy="312.915" r="1.682"/>
	<circle fill="#FFFFFF" cx="394.55" cy="331.446" r="1.682"/>
	<circle fill="#FFFFFF" cx="376.019" cy="349.977" r="1.682"/>
	<circle fill="#FFFFFF" cx="357.489" cy="368.508" r="1.682"/>
	<circle fill="#FFFFFF" cx="338.958" cy="387.039" r="1.682"/>
	<circle fill="#FFFFFF" cx="320.427" cy="405.569" r="1.682"/>
	<circle fill="#FFFFFF" cx="487.105" cy="201.632" r="1.682"/>
	<circle fill="#FFFFFF" cx="468.574" cy="220.163" r="1.682"/>
	<circle fill="#FFFFFF" cx="450.043" cy="238.693" r="1.682"/>
	<circle fill="#FFFFFF" cx="431.512" cy="257.224" r="1.682"/>
	<circle fill="#FFFFFF" cx="412.982" cy="275.755" r="1.682"/>
	<circle fill="#FFFFFF" cx="394.451" cy="294.286" r="1.682"/>
	<circle fill="#FFFFFF" cx="375.92" cy="312.816" r="1.682"/>
	<circle fill="#FFFFFF" cx="357.39" cy="331.347" r="1.682"/>
	<circle fill="#FFFFFF" cx="338.859" cy="349.878" r="1.682"/>
	<circle fill="#FFFFFF" cx="320.328" cy="368.409" r="1.682"/>
	<circle fill="#FFFFFF" cx="301.797" cy="386.939" r="1.682"/>
	<circle fill="#FFFFFF" cx="468.475" cy="183.002" r="1.682"/>
	<circle fill="#FFFFFF" cx="449.944" cy="201.533" r="1.682"/>
	<circle fill="#FFFFFF" cx="431.413" cy="220.064" r="1.682"/>
	<circle fill="#FFFFFF" cx="412.883" cy="238.594" r="1.682"/>
	<circle fill="#FFFFFF" cx="394.352" cy="257.125" r="1.682"/>
	<circle fill="#FFFFFF" cx="375.821" cy="275.656" r="1.682"/>
	<circle fill="#FFFFFF" cx="357.29" cy="294.186" r="1.682"/>
	<circle fill="#FFFFFF" cx="338.76" cy="312.717" r="1.682"/>
	<circle fill="#FFFFFF" cx="320.229" cy="331.248" r="1.682"/>
	<circle fill="#FFFFFF" cx="301.698" cy="349.779" r="1.682"/>
	<circle fill="#FFFFFF" cx="283.168" cy="368.31" r="1.682"/>
	<circle fill="#FFFFFF" cx="449.845" cy="164.372" r="1.682"/>
	<circle fill="#FFFFFF" cx="431.314" cy="182.903" r="1.682"/>
	<circle fill="#FFFFFF" cx="412.783" cy="201.434" r="1.682"/>
	<circle fill="#FFFFFF" cx="394.253" cy="219.965" r="1.682"/>
	<circle fill="#FFFFFF" cx="375.722" cy="238.495" r="1.682"/>
	<circle fill="#FFFFFF" cx="357.191" cy="257.026" r="1.682"/>
	<circle fill="#FFFFFF" cx="338.661" cy="275.557" r="1.682"/>
	<circle fill="#FFFFFF" cx="320.13" cy="294.087" r="1.682"/>
	<circle fill="#FFFFFF" cx="301.599" cy="312.618" r="1.682"/>
	<circle fill="#FFFFFF" cx="283.068" cy="331.149" r="1.682"/>
	<circle fill="#FFFFFF" cx="264.538" cy="349.68" r="1.682"/>
	<circle fill="#FFFFFF" cx="431.215" cy="145.743" r="1.682"/>
	<circle fill="#FFFFFF" cx="412.684" cy="164.273" r="1.682"/>
	<circle fill="#FFFFFF" cx="394.154" cy="182.804" r="1.682"/>
	<circle fill="#FFFFFF" cx="375.623" cy="201.335" r="1.682"/>
	<circle fill="#FFFFFF" cx="357.092" cy="219.865" r="1.682"/>
	<circle fill="#FFFFFF" cx="338.562" cy="238.396" r="1.682"/>
	<circle fill="#FFFFFF" cx="320.031" cy="256.927" r="1.682"/>
	<circle fill="#FFFFFF" cx="301.5" cy="275.458" r="1.682"/>
	<circle fill="#FFFFFF" cx="282.969" cy="293.988" r="1.682"/>
	<circle fill="#FFFFFF" cx="264.439" cy="312.519" r="1.682"/>
	<circle fill="#FFFFFF" cx="245.908" cy="331.05" r="1.682"/>
	<circle fill="#FFFFFF" cx="412.585" cy="127.113" r="1.682"/>
	<circle fill="#FFFFFF" cx="394.055" cy="145.644" r="1.682"/>
	<circle fill="#FFFFFF" cx="375.524" cy="164.174" r="1.682"/>
	<circle fill="#FFFFFF" cx="356.993" cy="182.705" r="1.682"/>
	<circle fill="#FFFFFF" cx="338.462" cy="201.236" r="1.682"/>
	<circle fill="#FFFFFF" cx="319.932" cy="219.766" r="1.682"/>
	<circle fill="#FFFFFF" cx="301.401" cy="238.297" r="1.682"/>
	<circle fill="#FFFFFF" cx="282.87" cy="256.828" r="1.682"/>
	<circle fill="#FFFFFF" cx="264.34" cy="275.359" r="1.682"/>
	<circle fill="#FFFFFF" cx="245.809" cy="293.889" r="1.682"/>
	<circle fill="#FFFFFF" cx="227.278" cy="312.42" r="1.682"/>
	<circle fill="#FFFFFF" cx="393.956" cy="108.483" r="1.682"/>
	<circle fill="#FFFFFF" cx="375.425" cy="127.013" r="1.682"/>
	<circle fill="#FFFFFF" cx="356.894" cy="145.544" r="1.682"/>
	<circle fill="#FFFFFF" cx="338.363" cy="164.075" r="1.682"/>
	<circle fill="#FFFFFF" cx="319.833" cy="182.606" r="1.682"/>
	<circle fill="#FFFFFF" cx="301.302" cy="201.137" r="1.682"/>
	<circle fill="#FFFFFF" cx="282.771" cy="219.667" r="1.682"/>
	<circle fill="#FFFFFF" cx="264.24" cy="238.198" r="1.682"/>
	<circle fill="#FFFFFF" cx="245.709" cy="256.729" r="1.682"/>
	<circle fill="#FFFFFF" cx="227.179" cy="275.259" r="1.682"/>
	<circle fill="#FFFFFF" cx="208.648" cy="293.79" r="1.682"/>
	<circle fill="#FFFFFF" cx="375.326" cy="89.853" r="1.682"/>
	<circle fill="#FFFFFF" cx="356.795" cy="108.384" r="1.682"/>
	<circle fill="#FFFFFF" cx="338.264" cy="126.914" r="1.682"/>
	<circle fill="#FFFFFF" cx="319.734" cy="145.445" r="1.682"/>
	<circle fill="#FFFFFF" cx="301.203" cy="163.976" r="1.682"/>
	<circle fill="#FFFFFF" cx="282.672" cy="182.507" r="1.682"/>
	<circle fill="#FFFFFF" cx="264.141" cy="201.037" r="1.682"/>
	<circle fill="#FFFFFF" cx="245.61" cy="219.568" r="1.682"/>
	<circle fill="#FFFFFF" cx="227.08" cy="238.099" r="1.682"/>
	<circle fill="#FFFFFF" cx="208.549" cy="256.63" r="1.682"/>
	<circle fill="#FFFFFF" cx="190.018" cy="275.16" r="1.682"/>
</g>
</svg>
